<?xml version="1.0" encoding="utf-8"?>
<svg version="1.1" xmlns:xlink="http://www.w3.org/1999/xlink" width="40px" height="40px" xmlns="http://www.w3.org/2000/svg">
  <g transform="matrix(1 0 0 1 -12 -10 )">
    <path d="M 38.984375 1.796875  C 39.661458333333336 2.0920138888888884  40 2.604166666666665  40 3.333333333333335  L 40 15  C 40 15.45138888888889  39.83506944444444 15.84201388888889  39.505208333333336 16.171875  C 39.17534722222223 16.50173611111111  38.78472222222223 16.666666666666664  38.333333333333336 17  L 26.666666666666664 17  C 25.9375 16.666666666666664  25.42534722222222 16.319444444444446  25.130208333333336 15.625  C 24.835069444444446 14.947916666666664  24.95659722222223 14.348958333333336  25.494791666666664 13.828125  L 29.088541666666664 10.234375  C 26.51909722222223 7.855902777777772  23.489583333333336 6.666666666666665  20 6.666666666666665  C 18.194444444444446 6.666666666666665  16.471354166666668 7.018229166666665  14.830729166666668 7.721354166666665  C 13.190104166666668 8.424479166666664  11.770833333333332 9.375  10.572916666666668 10.572916666666664  C 9.375 11.770833333333336  8.424479166666666 13.190104166666664  7.721354166666666 14.830729166666664  C 7.018229166666666 16.471354166666664  6.666666666666666 18.194444444444443  6.666666666666666 20  C 6.666666666666666 21.805555555555554  7.018229166666666 23.52864583333333  7.721354166666666 25.16927083333333  C 8.424479166666666 26.80989583333333  9.375 28.22916666666667  10.572916666666668 29.42708333333333  C 11.770833333333332 30.625  13.190104166666668 31.575520833333336  14.830729166666668 32.278645833333336  C 16.471354166666668 32.981770833333336  18.194444444444446 33.333333333333336  20 33.333333333333336  C 22.06597222222222 33.333333333333336  24.01909722222222 32.88194444444444  25.859375 31.979166666666664  C 27.699652777777782 31.07638888888889  29.25347222222223 29.80034722222222  30.520833333333336 28.15104166666667  C 30.64236111111111 27.977430555555554  30.842013888888893 27.873263888888886  31.119791666666664 27.83854166666667  C 31.380208333333336 27.83854166666667  31.59722222222223 27.91666666666667  31.770833333333336 28.07291666666667  L 35.338541666666664 31.666666666666664  C 35.494791666666664 31.805555555555554  35.57725694444444 31.983506944444446  35.5859375 32.200520833333336  C 35.59461805555556 32.41753472222222  35.52951388888889 32.61284722222222  35.390625 32.786458333333336  C 33.49826388888889 35.078125  31.20659722222223 36.853298611111114  28.515625 38.111979166666664  C 25.824652777777782 39.37065972222222  22.98611111111111 40  20 40  C 17.291666666666668 40  14.704861111111114 39.470486111111114  12.239583333333332 38.411458333333336  C 9.774305555555557 37.35243055555556  7.6475694444444455 35.92881944444444  5.859375 34.140625  C 4.071180555555555 32.35243055555556  2.6475694444444446 30.225694444444446  1.588541666666667 27.76041666666667  C 0.5295138888888891 25.295138888888886  0 22.70833333333333  0 20  C 0 17.291666666666664  0.5295138888888891 14.70486111111111  1.588541666666667 12.239583333333336  C 2.6475694444444446 9.774305555555554  4.071180555555555 7.647569444444442  5.859375 5.859375  C 7.6475694444444455 4.071180555555554  9.774305555555557 2.647569444444442  12.239583333333332 1.5885416666666652  C 14.704861111111114 0.5295138888888884  17.291666666666668 0  20 0  C 22.552083333333336 0  25.021701388888893 0.4817708333333348  27.408854166666664 1.4453125  C 29.796006944444446 2.408854166666665  31.918402777777782 3.767361111111107  33.776041666666664 5.520833333333335  L 37.161458333333336 2.161458333333335  C 37.66493055555556 1.6232638888888884  38.27256944444444 1.5017361111111072  38.984375 1.796875  Z " fill-rule="nonzero" fill="#ffffff" stroke="none" transform="matrix(1 0 0 1 12 10 )" />
  </g>
</svg>