<?xml version="1.0" encoding="utf-8"?>
<svg version="1.1" xmlns:xlink="http://www.w3.org/1999/xlink" width="40px" height="40px" xmlns="http://www.w3.org/2000/svg">
  <defs>
    <filter x="-2px" y="-2px" width="40px" height="40px" filterUnits="userSpaceOnUse" id="filter7">
      <feOffset dx="3" dy="3" in="SourceAlpha" result="shadowOffsetInner" />
      <feGaussianBlur stdDeviation="2.5" in="shadowOffsetInner" result="shadowGaussian" />
      <feComposite in2="shadowGaussian" operator="atop" in="SourceAlpha" result="shadowComposite" />
      <feColorMatrix type="matrix" values="0 0 0 0 0  0 0 0 0 0  0 0 0 0 0  0 0 0 0.34901960784313724 0  " in="shadowComposite" />
    </filter>
    <g id="widget8">
      <path d="M 15 0  C 23.400000000000002 0  30 6.6  30 15  C 30 23.400000000000002  23.400000000000002 30  15 30  C 6.6 30  0 23.400000000000002  0 15  C 0 6.6  6.6 0  15 0  Z " fill-rule="nonzero" fill="#ffffff" stroke="none" />
      <path d="M 15 0.5  C 23.12 0.5  29.5 6.879999999999999  29.5 15  C 29.5 23.12  23.12 29.5  15 29.5  C 6.879999999999999 29.5  0.5 23.12  0.5 15  C 0.5 6.879999999999999  6.879999999999999 0.5  15 0.5  Z " stroke-width="1" stroke="#333333" fill="none" />
    </g>
  </defs>
  <g transform="matrix(1 0 0 1 2 2 )">
    <use xlink:href="#widget8" filter="url(#filter7)" />
    <use xlink:href="#widget8" />
  </g>
</svg>