<?xml version="1.0" encoding="utf-8"?>
<svg version="1.1" xmlns:xlink="http://www.w3.org/1999/xlink" width="175px" height="6px" xmlns="http://www.w3.org/2000/svg">
  <g transform="matrix(1 0 0 1 -204 -147 )">
    <path d="M 206 150  A 1 1 0 0 1 207 149 L 376 149  A 1 1 0 0 1 377 150 A 1 1 0 0 1 376 151 L 207 151  A 1 1 0 0 1 206 150 Z " fill-rule="nonzero" fill="#1e98d7" stroke="none" fill-opacity="0.25098039215686274" />
    <path d="M 205 150  A 2 2 0 0 1 207 148 L 376 148  A 2 2 0 0 1 378 150 A 2 2 0 0 1 376 152 L 207 152  A 2 2 0 0 1 205 150 Z " stroke-width="2" stroke="#1e98d7" fill="none" stroke-opacity="0.25098039215686274" />
  </g>
</svg>