<?xml version="1.0" encoding="utf-8"?>
<svg version="1.1" xmlns:xlink="http://www.w3.org/1999/xlink" width="18px" height="18px" viewBox="275 329  18 18" xmlns="http://www.w3.org/2000/svg">
  <path d="M 284 330  C 288.48 330  292 333.52  292 338  C 292 342.48  288.48 346  284 346  C 279.52 346  276 342.48  276 338  C 276 333.52  279.52 330  284 330  Z " fill-rule="nonzero" fill="#6200ee" stroke="none" fill-opacity="0" />
  <path d="M 284 330  C 288.48 330  292 333.52  292 338  C 292 342.48  288.48 346  284 346  C 279.52 346  276 342.48  276 338  C 276 333.52  279.52 330  284 330  Z " stroke-width="2" stroke="#1e98d7" fill="none" />
  <path d="M 284 342.5  C 281.48 342.5  279.5 340.52  279.5 338  C 279.5 335.48  281.48 333.5  284 333.5  C 286.52 333.5  288.5 335.48  288.5 338  C 288.5 340.52  286.52 342.5  284 342.5  " fill-rule="nonzero" fill="#1e98d7" stroke="none" />
</svg>