<?xml version="1.0" encoding="utf-8"?>
<svg version="1.1" xmlns:xlink="http://www.w3.org/1999/xlink" width="18px" height="18px" viewBox="417 329  18 18" xmlns="http://www.w3.org/2000/svg">
  <path d="M 426 330  C 430.48 330  434 333.52  434 338  C 434 342.48  430.48 346  426 346  C 421.52 346  418 342.48  418 338  C 418 333.52  421.52 330  426 330  Z " fill-rule="nonzero" fill="#ffffff" stroke="none" />
  <path d="M 426 330  C 430.48 330  434 333.52  434 338  C 434 342.48  430.48 346  426 346  C 421.52 346  418 342.48  418 338  C 418 333.52  421.52 330  426 330  Z " stroke-width="2" stroke="#1e98d7" fill="none" />
  <path d="M 426 342.5  C 423.48 342.5  421.5 340.52  421.5 338  C 421.5 335.48  423.48 333.5  426 333.5  C 428.52 333.5  430.5 335.48  430.5 338  C 430.5 340.52  428.52 342.5  426 342.5  " fill-rule="nonzero" fill="#1e98d7" stroke="none" />
</svg>