<?xml version="1.0" encoding="utf-8"?>
<svg version="1.1" xmlns:xlink="http://www.w3.org/1999/xlink" width="18px" height="18px" viewBox="346 329  18 18" xmlns="http://www.w3.org/2000/svg">
  <path d="M 355 330  C 359.48 330  363 333.52  363 338  C 363 342.48  359.48 346  355 346  C 350.52 346  347 342.48  347 338  C 347 333.52  350.52 330  355 330  Z " fill-rule="nonzero" fill="#6200ee" stroke="none" fill-opacity="0" />
  <path d="M 355 330  C 359.48 330  363 333.52  363 338  C 363 342.48  359.48 346  355 346  C 350.52 346  347 342.48  347 338  C 347 333.52  350.52 330  355 330  Z " stroke-width="2" stroke="#1e98d7" fill="none" />
  <path d="M 355 342.5  C 352.48 342.5  350.5 340.52  350.5 338  C 350.5 335.48  352.48 333.5  355 333.5  C 357.52 333.5  359.5 335.48  359.5 338  C 359.5 340.52  357.52 342.5  355 342.5  " fill-rule="nonzero" fill="#1e98d7" stroke="none" />
</svg>