<?xml version="1.0" encoding="utf-8"?>
<svg version="1.1" xmlns:xlink="http://www.w3.org/1999/xlink" width="24px" height="22px" xmlns="http://www.w3.org/2000/svg">
  <g transform="matrix(1 0 0 1 -509 -229 )">
    <path d="M 521 229  C 527.72 229  533 233.84  533 240  C 533 246.16  527.72 251  521 251  C 514.28 251  509 246.16  509 240  C 509 233.84  514.28 229  521 229  Z " fill-rule="nonzero" fill="#ffff80" stroke="none" />
    <path d="M 521 229.5  C 527.44 229.5  532.5 234.12  532.5 240  C 532.5 245.88  527.44 250.5  521 250.5  C 514.56 250.5  509.5 245.88  509.5 240  C 509.5 234.12  514.56 229.5  521 229.5  Z " stroke-width="1" stroke="#797979" fill="none" />
  </g>
</svg>