<?xml version="1.0" encoding="utf-8"?>
<svg version="1.1" xmlns:xlink="http://www.w3.org/1999/xlink" width="24px" height="22px" xmlns="http://www.w3.org/2000/svg">
  <g transform="matrix(1 0 0 1 -546 -229 )">
    <path d="M 558 229  C 564.72 229  570 233.84  570 240  C 570 246.16  564.72 251  558 251  C 551.28 251  546 246.16  546 240  C 546 233.84  551.28 229  558 229  Z " fill-rule="nonzero" fill="#02a7f0" stroke="none" />
    <path d="M 558 229.5  C 564.44 229.5  569.5 234.12  569.5 240  C 569.5 245.88  564.44 250.5  558 250.5  C 551.56 250.5  546.5 245.88  546.5 240  C 546.5 234.12  551.56 229.5  558 229.5  Z " stroke-width="1" stroke="#797979" fill="none" />
  </g>
</svg>