<?xml version="1.0" encoding="utf-8"?>
<svg version="1.1" xmlns:xlink="http://www.w3.org/1999/xlink" width="24px" height="22px" xmlns="http://www.w3.org/2000/svg">
  <g transform="matrix(1 0 0 1 -586 -229 )">
    <path d="M 598 229  C 604.72 229  610 233.84  610 240  C 610 246.16  604.72 251  598 251  C 591.28 251  586 246.16  586 240  C 586 233.84  591.28 229  598 229  Z " fill-rule="nonzero" fill="#42ff00" stroke="none" />
    <path d="M 598 229.5  C 604.44 229.5  609.5 234.12  609.5 240  C 609.5 245.88  604.44 250.5  598 250.5  C 591.56 250.5  586.5 245.88  586.5 240  C 586.5 234.12  591.56 229.5  598 229.5  Z " stroke-width="1" stroke="#797979" fill="none" />
  </g>
</svg>