<?xml version="1.0" encoding="utf-8"?>
<svg version="1.1" xmlns:xlink="http://www.w3.org/1999/xlink" width="24px" height="22px" xmlns="http://www.w3.org/2000/svg">
  <g transform="matrix(1 0 0 1 -740 -229 )">
    <path d="M 752 229  C 758.72 229  764 233.84  764 240  C 764 246.16  758.72 251  752 251  C 745.28 251  740 246.16  740 240  C 740 233.84  745.28 229  752 229  Z " fill-rule="nonzero" fill="#02a7f0" stroke="none" />
    <path d="M 752 229.5  C 758.44 229.5  763.5 234.12  763.5 240  C 763.5 245.88  758.44 250.5  752 250.5  C 745.56 250.5  740.5 245.88  740.5 240  C 740.5 234.12  745.56 229.5  752 229.5  Z " stroke-width="1" stroke="#797979" fill="none" />
  </g>
</svg>