<?xml version="1.0" encoding="utf-8"?>
<svg version="1.1" xmlns:xlink="http://www.w3.org/1999/xlink" width="24px" height="22px" xmlns="http://www.w3.org/2000/svg">
  <g transform="matrix(1 0 0 1 -822 -229 )">
    <path d="M 834 229  C 840.72 229  846 233.84  846 240  C 846 246.16  840.72 251  834 251  C 827.28 251  822 246.16  822 240  C 822 233.84  827.28 229  834 229  Z " fill-rule="nonzero" fill="#ff80db" stroke="none" />
    <path d="M 834 229.5  C 840.44 229.5  845.5 234.12  845.5 240  C 845.5 245.88  840.44 250.5  834 250.5  C 827.56 250.5  822.5 245.88  822.5 240  C 822.5 234.12  827.56 229.5  834 229.5  Z " stroke-width="1" stroke="#797979" fill="none" />
  </g>
</svg>