<?xml version="1.0" encoding="utf-8"?>
<svg version="1.1" xmlns:xlink="http://www.w3.org/1999/xlink" width="29px" height="24px" xmlns="http://www.w3.org/2000/svg">
  <g transform="matrix(1 0 0 1 -85 -359 )">
    <path d="M 99.5 359  C 107.62 359  114 364.28  114 371  C 114 377.72  107.62 383  99.5 383  C 91.38 383  85 377.72  85 371  C 85 364.28  91.38 359  99.5 359  Z " fill-rule="nonzero" fill="#ffe5c8" stroke="none" />
    <path d="M 99.5 359.5  C 107.34 359.5  113.5 364.56  113.5 371  C 113.5 377.44  107.34 382.5  99.5 382.5  C 91.66 382.5  85.5 377.44  85.5 371  C 85.5 364.56  91.66 359.5  99.5 359.5  Z " stroke-width="1" stroke="#797979" fill="none" />
  </g>
</svg>