<?xml version="1.0" encoding="utf-8"?>
<svg version="1.1" xmlns:xlink="http://www.w3.org/1999/xlink" width="29px" height="24px" xmlns="http://www.w3.org/2000/svg">
  <g transform="matrix(1 0 0 1 -85 -324 )">
    <path d="M 99.5 324  C 107.62 324  114 329.28  114 336  C 114 342.72  107.62 348  99.5 348  C 91.38 348  85 342.72  85 336  C 85 329.28  91.38 324  99.5 324  Z " fill-rule="nonzero" fill="#ffceb4" stroke="none" />
    <path d="M 99.5 324.5  C 107.34 324.5  113.5 329.56  113.5 336  C 113.5 342.44  107.34 347.5  99.5 347.5  C 91.66 347.5  85.5 342.44  85.5 336  C 85.5 329.56  91.66 324.5  99.5 324.5  Z " stroke-width="1" stroke="#797979" fill="none" />
  </g>
</svg>