<?xml version="1.0" encoding="utf-8"?>
<svg version="1.1" xmlns:xlink="http://www.w3.org/1999/xlink" width="29px" height="24px" xmlns="http://www.w3.org/2000/svg">
  <g transform="matrix(1 0 0 1 -85 -254 )">
    <path d="M 99.5 254  C 107.62 254  114 259.28  114 266  C 114 272.72  107.62 278  99.5 278  C 91.38 278  85 272.72  85 266  C 85 259.28  91.38 254  99.5 254  Z " fill-rule="nonzero" fill="#d2a18c" stroke="none" />
    <path d="M 99.5 254.5  C 107.34 254.5  113.5 259.56  113.5 266  C 113.5 272.44  107.34 277.5  99.5 277.5  C 91.66 277.5  85.5 272.44  85.5 266  C 85.5 259.56  91.66 254.5  99.5 254.5  Z " stroke-width="1" stroke="#797979" fill="none" />
  </g>
</svg>