<?xml version="1.0" encoding="utf-8"?>
<svg version="1.1" xmlns:xlink="http://www.w3.org/1999/xlink" width="29px" height="24px" xmlns="http://www.w3.org/2000/svg">
  <g transform="matrix(1 0 0 1 -85 -149 )">
    <path d="M 99.5 149  C 107.62 149  114 154.28  114 161  C 114 167.72  107.62 173  99.5 173  C 91.38 173  85 167.72  85 161  C 85 154.28  91.38 149  99.5 149  Z " fill-rule="nonzero" fill="#965045" stroke="none" />
    <path d="M 99.5 149.5  C 107.34 149.5  113.5 154.56  113.5 161  C 113.5 167.44  107.34 172.5  99.5 172.5  C 91.66 172.5  85.5 167.44  85.5 161  C 85.5 154.56  91.66 149.5  99.5 149.5  Z " stroke-width="1" stroke="#797979" fill="none" />
  </g>
</svg>