<?xml version="1.0" encoding="utf-8"?>
<svg version="1.1" xmlns:xlink="http://www.w3.org/1999/xlink" width="13px" height="13px" viewBox="1323 3932  13 13" xmlns="http://www.w3.org/2000/svg">
  <path d="M 1329.5 3932  C 1333.14 3932  1336 3934.86  1336 3938.5  C 1336 3942.14  1333.14 3945  1329.5 3945  C 1325.86 3945  1323 3942.14  1323 3938.5  C 1323 3934.86  1325.86 3932  1329.5 3932  Z " fill-rule="nonzero" fill="#f0f0f0" stroke="none" />
  <path d="M 1329.5 3932.5  C 1332.86 3932.5  1335.5 3935.14  1335.5 3938.5  C 1335.5 3941.86  1332.86 3944.5  1329.5 3944.5  C 1326.14 3944.5  1323.5 3941.86  1323.5 3938.5  C 1323.5 3935.14  1326.14 3932.5  1329.5 3932.5  Z " stroke-width="1" stroke="#797979" fill="none" />
  <path d="M 1329.5 3941.75  C 1327.68 3941.75  1326.25 3940.32  1326.25 3938.5  C 1326.25 3936.68  1327.68 3935.25  1329.5 3935.25  C 1331.32 3935.25  1332.75 3936.68  1332.75 3938.5  C 1332.75 3940.32  1331.32 3941.75  1329.5 3941.75  " fill-rule="nonzero" fill="#797979" stroke="none" />
</svg>