<?xml version="1.0" encoding="utf-8"?>
<svg version="1.1" xmlns:xlink="http://www.w3.org/1999/xlink" width="13px" height="13px" viewBox="1323 3980  13 13" xmlns="http://www.w3.org/2000/svg">
  <path d="M 1329.5 3980  C 1333.14 3980  1336 3982.86  1336 3986.5  C 1336 3990.14  1333.14 3993  1329.5 3993  C 1325.86 3993  1323 3990.14  1323 3986.5  C 1323 3982.86  1325.86 3980  1329.5 3980  Z " fill-rule="nonzero" fill="#f0f0f0" stroke="none" />
  <path d="M 1329.5 3980.5  C 1332.86 3980.5  1335.5 3983.14  1335.5 3986.5  C 1335.5 3989.86  1332.86 3992.5  1329.5 3992.5  C 1326.14 3992.5  1323.5 3989.86  1323.5 3986.5  C 1323.5 3983.14  1326.14 3980.5  1329.5 3980.5  Z " stroke-width="1" stroke="#797979" fill="none" />
  <path d="M 1329.5 3989.75  C 1327.68 3989.75  1326.25 3988.32  1326.25 3986.5  C 1326.25 3984.68  1327.68 3983.25  1329.5 3983.25  C 1331.32 3983.25  1332.75 3984.68  1332.75 3986.5  C 1332.75 3988.32  1331.32 3989.75  1329.5 3989.75  " fill-rule="nonzero" fill="#797979" stroke="none" />
</svg>