<?xml version="1.0" encoding="utf-8"?>
<svg version="1.1" xmlns:xlink="http://www.w3.org/1999/xlink" width="13px" height="13px" viewBox="1323 4076  13 13" xmlns="http://www.w3.org/2000/svg">
  <path d="M 1329.5 4076  C 1333.14 4076  1336 4078.86  1336 4082.5  C 1336 4086.14  1333.14 4089  1329.5 4089  C 1325.86 4089  1323 4086.14  1323 4082.5  C 1323 4078.86  1325.86 4076  1329.5 4076  Z " fill-rule="nonzero" fill="#ffffff" stroke="none" />
  <path d="M 1329.5 4076.5  C 1332.86 4076.5  1335.5 4079.14  1335.5 4082.5  C 1335.5 4085.86  1332.86 4088.5  1329.5 4088.5  C 1326.14 4088.5  1323.5 4085.86  1323.5 4082.5  C 1323.5 4079.14  1326.14 4076.5  1329.5 4076.5  Z " stroke-width="1" stroke="#797979" fill="none" />
  <path d="M 1329.5 4085.75  C 1327.68 4085.75  1326.25 4084.32  1326.25 4082.5  C 1326.25 4080.68  1327.68 4079.25  1329.5 4079.25  C 1331.32 4079.25  1332.75 4080.68  1332.75 4082.5  C 1332.75 4084.32  1331.32 4085.75  1329.5 4085.75  " fill-rule="nonzero" fill="#797979" stroke="none" />
</svg>