<?xml version="1.0" encoding="utf-8"?>
<svg version="1.1" xmlns:xlink="http://www.w3.org/1999/xlink" width="13px" height="13px" viewBox="1623 3883  13 13" xmlns="http://www.w3.org/2000/svg">
  <path d="M 1629.5 3883  C 1633.14 3883  1636 3885.86  1636 3889.5  C 1636 3893.14  1633.14 3896  1629.5 3896  C 1625.86 3896  1623 3893.14  1623 3889.5  C 1623 3885.86  1625.86 3883  1629.5 3883  Z " fill-rule="nonzero" fill="#ffffff" stroke="none" />
  <path d="M 1629.5 3883.5  C 1632.86 3883.5  1635.5 3886.14  1635.5 3889.5  C 1635.5 3892.86  1632.86 3895.5  1629.5 3895.5  C 1626.14 3895.5  1623.5 3892.86  1623.5 3889.5  C 1623.5 3886.14  1626.14 3883.5  1629.5 3883.5  Z " stroke-width="1" stroke="#797979" fill="none" />
  <path d="M 1629.5 3892.75  C 1627.68 3892.75  1626.25 3891.32  1626.25 3889.5  C 1626.25 3887.68  1627.68 3886.25  1629.5 3886.25  C 1631.32 3886.25  1632.75 3887.68  1632.75 3889.5  C 1632.75 3891.32  1631.32 3892.75  1629.5 3892.75  " fill-rule="nonzero" fill="#797979" stroke="none" />
</svg>