<?xml version="1.0" encoding="utf-8"?>
<svg version="1.1" xmlns:xlink="http://www.w3.org/1999/xlink" width="13px" height="13px" viewBox="1623 4027  13 13" xmlns="http://www.w3.org/2000/svg">
  <path d="M 1629.5 4027  C 1633.14 4027  1636 4029.86  1636 4033.5  C 1636 4037.14  1633.14 4040  1629.5 4040  C 1625.86 4040  1623 4037.14  1623 4033.5  C 1623 4029.86  1625.86 4027  1629.5 4027  Z " fill-rule="nonzero" fill="#ffffff" stroke="none" />
  <path d="M 1629.5 4027.5  C 1632.86 4027.5  1635.5 4030.14  1635.5 4033.5  C 1635.5 4036.86  1632.86 4039.5  1629.5 4039.5  C 1626.14 4039.5  1623.5 4036.86  1623.5 4033.5  C 1623.5 4030.14  1626.14 4027.5  1629.5 4027.5  Z " stroke-width="1" stroke="#797979" fill="none" />
  <path d="M 1629.5 4036.75  C 1627.68 4036.75  1626.25 4035.32  1626.25 4033.5  C 1626.25 4031.68  1627.68 4030.25  1629.5 4030.25  C 1631.32 4030.25  1632.75 4031.68  1632.75 4033.5  C 1632.75 4035.32  1631.32 4036.75  1629.5 4036.75  " fill-rule="nonzero" fill="#797979" stroke="none" />
</svg>