<?xml version="1.0" encoding="utf-8"?>
<svg version="1.1" xmlns:xlink="http://www.w3.org/1999/xlink" width="13px" height="13px" viewBox="1623 3979  13 13" xmlns="http://www.w3.org/2000/svg">
  <path d="M 1629.5 3979  C 1633.14 3979  1636 3981.86  1636 3985.5  C 1636 3989.14  1633.14 3992  1629.5 3992  C 1625.86 3992  1623 3989.14  1623 3985.5  C 1623 3981.86  1625.86 3979  1629.5 3979  Z " fill-rule="nonzero" fill="#f0f0f0" stroke="none" />
  <path d="M 1629.5 3979.5  C 1632.86 3979.5  1635.5 3982.14  1635.5 3985.5  C 1635.5 3988.86  1632.86 3991.5  1629.5 3991.5  C 1626.14 3991.5  1623.5 3988.86  1623.5 3985.5  C 1623.5 3982.14  1626.14 3979.5  1629.5 3979.5  Z " stroke-width="1" stroke="#797979" fill="none" />
  <path d="M 1629.5 3988.75  C 1627.68 3988.75  1626.25 3987.32  1626.25 3985.5  C 1626.25 3983.68  1627.68 3982.25  1629.5 3982.25  C 1631.32 3982.25  1632.75 3983.68  1632.75 3985.5  C 1632.75 3987.32  1631.32 3988.75  1629.5 3988.75  " fill-rule="nonzero" fill="#797979" stroke="none" />
</svg>