<?xml version="1.0" encoding="utf-8"?>
<svg version="1.1" xmlns:xlink="http://www.w3.org/1999/xlink" width="13px" height="13px" viewBox="1323 4450  13 13" xmlns="http://www.w3.org/2000/svg">
  <path d="M 1329.5 4450  C 1333.14 4450  1336 4452.86  1336 4456.5  C 1336 4460.14  1333.14 4463  1329.5 4463  C 1325.86 4463  1323 4460.14  1323 4456.5  C 1323 4452.86  1325.86 4450  1329.5 4450  Z " fill-rule="nonzero" fill="#ffffff" stroke="none" />
  <path d="M 1329.5 4450.5  C 1332.86 4450.5  1335.5 4453.14  1335.5 4456.5  C 1335.5 4459.86  1332.86 4462.5  1329.5 4462.5  C 1326.14 4462.5  1323.5 4459.86  1323.5 4456.5  C 1323.5 4453.14  1326.14 4450.5  1329.5 4450.5  Z " stroke-width="1" stroke="#797979" fill="none" />
  <path d="M 1329.5 4459.75  C 1327.68 4459.75  1326.25 4458.32  1326.25 4456.5  C 1326.25 4454.68  1327.68 4453.25  1329.5 4453.25  C 1331.32 4453.25  1332.75 4454.68  1332.75 4456.5  C 1332.75 4458.32  1331.32 4459.75  1329.5 4459.75  " fill-rule="nonzero" fill="#797979" stroke="none" />
</svg>