<?xml version="1.0" encoding="utf-8"?>
<svg version="1.1" xmlns:xlink="http://www.w3.org/1999/xlink" width="13px" height="13px" viewBox="1323 4498  13 13" xmlns="http://www.w3.org/2000/svg">
  <path d="M 1329.5 4498  C 1333.14 4498  1336 4500.86  1336 4504.5  C 1336 4508.14  1333.14 4511  1329.5 4511  C 1325.86 4511  1323 4508.14  1323 4504.5  C 1323 4500.86  1325.86 4498  1329.5 4498  Z " fill-rule="nonzero" fill="#f0f0f0" stroke="none" />
  <path d="M 1329.5 4498.5  C 1332.86 4498.5  1335.5 4501.14  1335.5 4504.5  C 1335.5 4507.86  1332.86 4510.5  1329.5 4510.5  C 1326.14 4510.5  1323.5 4507.86  1323.5 4504.5  C 1323.5 4501.14  1326.14 4498.5  1329.5 4498.5  Z " stroke-width="1" stroke="#797979" fill="none" />
  <path d="M 1329.5 4507.75  C 1327.68 4507.75  1326.25 4506.32  1326.25 4504.5  C 1326.25 4502.68  1327.68 4501.25  1329.5 4501.25  C 1331.32 4501.25  1332.75 4502.68  1332.75 4504.5  C 1332.75 4506.32  1331.32 4507.75  1329.5 4507.75  " fill-rule="nonzero" fill="#797979" stroke="none" />
</svg>