<?xml version="1.0" encoding="utf-8"?>
<svg version="1.1" xmlns:xlink="http://www.w3.org/1999/xlink" width="13px" height="13px" viewBox="1623 4075  13 13" xmlns="http://www.w3.org/2000/svg">
  <path d="M 1629.5 4075  C 1633.14 4075  1636 4077.86  1636 4081.5  C 1636 4085.14  1633.14 4088  1629.5 4088  C 1625.86 4088  1623 4085.14  1623 4081.5  C 1623 4077.86  1625.86 4075  1629.5 4075  Z " fill-rule="nonzero" fill="#f0f0f0" stroke="none" />
  <path d="M 1629.5 4075.5  C 1632.86 4075.5  1635.5 4078.14  1635.5 4081.5  C 1635.5 4084.86  1632.86 4087.5  1629.5 4087.5  C 1626.14 4087.5  1623.5 4084.86  1623.5 4081.5  C 1623.5 4078.14  1626.14 4075.5  1629.5 4075.5  Z " stroke-width="1" stroke="#797979" fill="none" />
  <path d="M 1629.5 4084.75  C 1627.68 4084.75  1626.25 4083.32  1626.25 4081.5  C 1626.25 4079.68  1627.68 4078.25  1629.5 4078.25  C 1631.32 4078.25  1632.75 4079.68  1632.75 4081.5  C 1632.75 4083.32  1631.32 4084.75  1629.5 4084.75  " fill-rule="nonzero" fill="#797979" stroke="none" />
</svg>