<?xml version="1.0" encoding="utf-8"?>
<svg version="1.1" xmlns:xlink="http://www.w3.org/1999/xlink" width="13px" height="13px" viewBox="1323 4546  13 13" xmlns="http://www.w3.org/2000/svg">
  <path d="M 1329.5 4546  C 1333.14 4546  1336 4548.86  1336 4552.5  C 1336 4556.14  1333.14 4559  1329.5 4559  C 1325.86 4559  1323 4556.14  1323 4552.5  C 1323 4548.86  1325.86 4546  1329.5 4546  Z " fill-rule="nonzero" fill="#ffffff" stroke="none" />
  <path d="M 1329.5 4546.5  C 1332.86 4546.5  1335.5 4549.14  1335.5 4552.5  C 1335.5 4555.86  1332.86 4558.5  1329.5 4558.5  C 1326.14 4558.5  1323.5 4555.86  1323.5 4552.5  C 1323.5 4549.14  1326.14 4546.5  1329.5 4546.5  Z " stroke-width="1" stroke="#797979" fill="none" />
  <path d="M 1329.5 4555.75  C 1327.68 4555.75  1326.25 4554.32  1326.25 4552.5  C 1326.25 4550.68  1327.68 4549.25  1329.5 4549.25  C 1331.32 4549.25  1332.75 4550.68  1332.75 4552.5  C 1332.75 4554.32  1331.32 4555.75  1329.5 4555.75  " fill-rule="nonzero" fill="#797979" stroke="none" />
</svg>