<?xml version="1.0" encoding="utf-8"?>
<svg version="1.1" xmlns:xlink="http://www.w3.org/1999/xlink" width="346px" height="550px" xmlns="http://www.w3.org/2000/svg">
  <g transform="matrix(1 0 0 1 -644 -5868 )">
    <path d="M 644 5868  L 990 5868  L 990 6418  L 644 6418  L 644 5868  " fill-rule="nonzero" fill="#cccccc" stroke="none" />
    <path d="M 668 5892  L 966 5892  L 966 6394  L 668 6394  L 668 5892  " fill-rule="nonzero" fill="#ffffff" stroke="none" />
    <path d="M 849.8700000000001 6002.4  C 835.3380000000001 6002.4  823.9200000000001 5990.982  823.9200000000001 5976.45  C 823.9200000000001 5961.918  835.3380000000001 5950.5  849.8700000000001 5950.5  C 864.402 5950.5  875.82 5961.918  875.82 5976.45  C 875.82 5990.982  864.402 6002.4  849.8700000000001 6002.4  " fill-rule="nonzero" fill="#cccccc" stroke="none" />
    <path d="M 677 6386  L 677 6119.25  L 747.25 5998  L 845.6 6095  L 901.8 6070.75  L 958 6095  L 958 6386  L 677 6386  " fill-rule="nonzero" fill="#169bd5" stroke="none" />
  </g>
</svg>