<?xml version="1.0" encoding="utf-8"?>
<svg version="1.1" xmlns:xlink="http://www.w3.org/1999/xlink" width="346px" height="238px" xmlns="http://www.w3.org/2000/svg">
  <g transform="matrix(1 0 0 1 -1292 -5917 )">
    <path d="M 1292 5917  L 1638 5917  L 1638 6155  L 1292 6155  L 1292 5917  " fill-rule="nonzero" fill="#cccccc" stroke="none" />
    <path d="M 1309 5934  L 1621 5934  L 1621 6138  L 1309 6138  L 1309 5934  " fill-rule="nonzero" fill="#ffffff" stroke="none" />
    <path d="M 1489.77 5988.4  C 1479.7740000000001 5988.4  1471.92 5980.545999999999  1471.92 5970.549999999999  C 1471.92 5960.553999999999  1479.7740000000001 5952.7  1489.77 5952.7  C 1499.766 5952.7  1507.6200000000001 5960.553999999999  1507.6200000000001 5970.549999999999  C 1507.6200000000001 5980.545999999999  1499.766 5988.4  1489.77 5988.4  " fill-rule="nonzero" fill="#cccccc" stroke="none" />
    <path d="M 1315 6132  L 1315 6026.4  L 1390 5978.4  L 1495 6052.75838150289  L 1555 6007.2  L 1615 6052.75838150289  L 1615 6132  L 1315 6132  " fill-rule="nonzero" fill="#169bd5" stroke="none" />
  </g>
</svg>