<?xml version="1.0" encoding="utf-8"?>
<svg version="1.1" xmlns:xlink="http://www.w3.org/1999/xlink" width="743px" height="397px" xmlns="http://www.w3.org/2000/svg">
  <g transform="matrix(1 0 0 1 -1907 -6025 )">
    <path d="M 1907 6025  L 2650 6025  L 2650 6422  L 1907 6422  L 1907 6025  " fill-rule="nonzero" fill="#cccccc" stroke="none" />
    <path d="M 1935 6053  L 2622 6053  L 2622 6394  L 1935 6394  L 1935 6053  " fill-rule="nonzero" fill="#ffffff" stroke="none" />
    <path d="M 2323.135 6144.1  C 2306.4610000000002 6144.1  2293.36 6130.999000000001  2293.36 6114.325000000001  C 2293.36 6097.651000000001  2306.4610000000002 6084.55  2323.135 6084.55  C 2339.809 6084.55  2352.9100000000003 6097.651000000001  2352.9100000000003 6114.325000000001  C 2352.9100000000003 6130.999000000001  2339.809 6144.1  2323.135 6144.1  " fill-rule="nonzero" fill="#cccccc" stroke="none" />
    <path d="M 1945 6384  L 1945 6207.45  L 2111.75 6127.2  L 2345.2 6281.0899057873485  L 2478.6 6175.35  L 2612 6281.0899057873485  L 2612 6384  L 1945 6384  " fill-rule="nonzero" fill="#169bd5" stroke="none" />
  </g>
</svg>