<?xml version="1.0" encoding="utf-8"?>
<svg version="1.1" xmlns:xlink="http://www.w3.org/1999/xlink" width="23px" height="22px" xmlns="http://www.w3.org/2000/svg">
  <g transform="matrix(1 0 0 1 -1391 -3327 )">
    <path d="M 1402.5 3327  C 1408.94 3327  1414 3331.84  1414 3338  C 1414 3344.16  1408.94 3349  1402.5 3349  C 1396.06 3349  1391 3344.16  1391 3338  C 1391 3331.84  1396.06 3327  1402.5 3327  Z " fill-rule="nonzero" fill="#ffe5c8" stroke="none" />
    <path d="M 1402.5 3327.5  C 1408.66 3327.5  1413.5 3332.12  1413.5 3338  C 1413.5 3343.88  1408.66 3348.5  1402.5 3348.5  C 1396.34 3348.5  1391.5 3343.88  1391.5 3338  C 1391.5 3332.12  1396.34 3327.5  1402.5 3327.5  Z " stroke-width="1" stroke="#797979" fill="none" />
  </g>
</svg>