<?xml version="1.0" encoding="utf-8"?>
<svg version="1.1" xmlns:xlink="http://www.w3.org/1999/xlink" width="23px" height="22px" xmlns="http://www.w3.org/2000/svg">
  <g transform="matrix(1 0 0 1 -1390 -3103 )">
    <path d="M 1401.5 3103  C 1407.94 3103  1413 3107.84  1413 3114  C 1413 3120.16  1407.94 3125  1401.5 3125  C 1395.06 3125  1390 3120.16  1390 3114  C 1390 3107.84  1395.06 3103  1401.5 3103  Z " fill-rule="nonzero" fill="#2d221e" stroke="none" />
    <path d="M 1401.5 3103.5  C 1407.66 3103.5  1412.5 3108.12  1412.5 3114  C 1412.5 3119.88  1407.66 3124.5  1401.5 3124.5  C 1395.34 3124.5  1390.5 3119.88  1390.5 3114  C 1390.5 3108.12  1395.34 3103.5  1401.5 3103.5  Z " stroke-width="1" stroke="#797979" fill="none" />
  </g>
</svg>