<?xml version="1.0" encoding="utf-8"?>
<svg version="1.1" xmlns:xlink="http://www.w3.org/1999/xlink" width="23px" height="22px" xmlns="http://www.w3.org/2000/svg">
  <g transform="matrix(1 0 0 1 -1391 -3135 )">
    <path d="M 1402.5 3135  C 1408.94 3135  1414 3139.84  1414 3146  C 1414 3152.16  1408.94 3157  1402.5 3157  C 1396.06 3157  1391 3152.16  1391 3146  C 1391 3139.84  1396.06 3135  1402.5 3135  Z " fill-rule="nonzero" fill="#965045" stroke="none" />
    <path d="M 1402.5 3135.5  C 1408.66 3135.5  1413.5 3140.12  1413.5 3146  C 1413.5 3151.88  1408.66 3156.5  1402.5 3156.5  C 1396.34 3156.5  1391.5 3151.88  1391.5 3146  C 1391.5 3140.12  1396.34 3135.5  1402.5 3135.5  Z " stroke-width="1" stroke="#797979" fill="none" />
  </g>
</svg>