<?xml version="1.0" encoding="utf-8"?>
<svg version="1.1" xmlns:xlink="http://www.w3.org/1999/xlink" width="23px" height="22px" xmlns="http://www.w3.org/2000/svg">
  <g transform="matrix(1 0 0 1 -1391 -3231 )">
    <path d="M 1402.5 3231  C 1408.94 3231  1414 3235.84  1414 3242  C 1414 3248.16  1408.94 3253  1402.5 3253  C 1396.06 3253  1391 3248.16  1391 3242  C 1391 3235.84  1396.06 3231  1402.5 3231  Z " fill-rule="nonzero" fill="#d2a18c" stroke="none" />
    <path d="M 1402.5 3231.5  C 1408.66 3231.5  1413.5 3236.12  1413.5 3242  C 1413.5 3247.88  1408.66 3252.5  1402.5 3252.5  C 1396.34 3252.5  1391.5 3247.88  1391.5 3242  C 1391.5 3236.12  1396.34 3231.5  1402.5 3231.5  Z " stroke-width="1" stroke="#797979" fill="none" />
  </g>
</svg>