<?xml version="1.0" encoding="utf-8"?>
<svg version="1.1" xmlns:xlink="http://www.w3.org/1999/xlink" width="23px" height="22px" xmlns="http://www.w3.org/2000/svg">
  <g transform="matrix(1 0 0 1 -1391 -3199 )">
    <path d="M 1402.5 3199  C 1408.94 3199  1414 3203.84  1414 3210  C 1414 3216.16  1408.94 3221  1402.5 3221  C 1396.06 3221  1391 3216.16  1391 3210  C 1391 3203.84  1396.06 3199  1402.5 3199  Z " fill-rule="nonzero" fill="#b48a78" stroke="none" />
    <path d="M 1402.5 3199.5  C 1408.66 3199.5  1413.5 3204.12  1413.5 3210  C 1413.5 3215.88  1408.66 3220.5  1402.5 3220.5  C 1396.34 3220.5  1391.5 3215.88  1391.5 3210  C 1391.5 3204.12  1396.34 3199.5  1402.5 3199.5  Z " stroke-width="1" stroke="#797979" fill="none" />
  </g>
</svg>