<?xml version="1.0" encoding="utf-8"?>
<svg version="1.1" xmlns:xlink="http://www.w3.org/1999/xlink" width="23px" height="22px" xmlns="http://www.w3.org/2000/svg">
  <g transform="matrix(1 0 0 1 -1391 -3295 )">
    <path d="M 1402.5 3295  C 1408.94 3295  1414 3299.84  1414 3306  C 1414 3312.16  1408.94 3317  1402.5 3317  C 1396.06 3317  1391 3312.16  1391 3306  C 1391 3299.84  1396.06 3295  1402.5 3295  Z " fill-rule="nonzero" fill="#ffceb4" stroke="none" />
    <path d="M 1402.5 3295.5  C 1408.66 3295.5  1413.5 3300.12  1413.5 3306  C 1413.5 3311.88  1408.66 3316.5  1402.5 3316.5  C 1396.34 3316.5  1391.5 3311.88  1391.5 3306  C 1391.5 3300.12  1396.34 3295.5  1402.5 3295.5  Z " stroke-width="1" stroke="#797979" fill="none" />
  </g>
</svg>