<?xml version="1.0" encoding="utf-8"?>
<svg version="1.1" xmlns:xlink="http://www.w3.org/1999/xlink" width="23px" height="22px" xmlns="http://www.w3.org/2000/svg">
  <g transform="matrix(1 0 0 1 -1391 -3167 )">
    <path d="M 1402.5 3167  C 1408.94 3167  1414 3171.84  1414 3178  C 1414 3184.16  1408.94 3189  1402.5 3189  C 1396.06 3189  1391 3184.16  1391 3178  C 1391 3171.84  1396.06 3167  1402.5 3167  Z " fill-rule="nonzero" fill="#967264" stroke="none" fill-opacity="0.6431372549019608" />
    <path d="M 1402.5 3167.5  C 1408.66 3167.5  1413.5 3172.12  1413.5 3178  C 1413.5 3183.88  1408.66 3188.5  1402.5 3188.5  C 1396.34 3188.5  1391.5 3183.88  1391.5 3178  C 1391.5 3172.12  1396.34 3167.5  1402.5 3167.5  Z " stroke-width="1" stroke="#797979" fill="none" />
  </g>
</svg>