<?xml version="1.0" encoding="utf-8"?>
<svg version="1.1" xmlns:xlink="http://www.w3.org/1999/xlink" width="23px" height="22px" xmlns="http://www.w3.org/2000/svg">
  <g transform="matrix(1 0 0 1 -1391 -3263 )">
    <path d="M 1402.5 3263  C 1408.94 3263  1414 3267.84  1414 3274  C 1414 3280.16  1408.94 3285  1402.5 3285  C 1396.06 3285  1391 3280.16  1391 3274  C 1391 3267.84  1396.06 3263  1402.5 3263  Z " fill-rule="nonzero" fill="#f0b8a0" stroke="none" />
    <path d="M 1402.5 3263.5  C 1408.66 3263.5  1413.5 3268.12  1413.5 3274  C 1413.5 3279.88  1408.66 3284.5  1402.5 3284.5  C 1396.34 3284.5  1391.5 3279.88  1391.5 3274  C 1391.5 3268.12  1396.34 3263.5  1402.5 3263.5  Z " stroke-width="1" stroke="#797979" fill="none" />
  </g>
</svg>