<?xml version="1.0" encoding="utf-8"?>
<svg version="1.1" xmlns:xlink="http://www.w3.org/1999/xlink" width="24px" height="24px" viewBox="91 43  24 24" xmlns="http://www.w3.org/2000/svg">
  <path d="M 103 44  C 109.16 44  114 48.84  114 55  C 114 61.16  109.16 66  103 66  C 96.84 66  92 61.16  92 55  C 92 48.84  96.84 44  103 44  Z " fill-rule="nonzero" fill="#ffffff" stroke="none" />
  <path d="M 103 44  C 109.16 44  114 48.84  114 55  C 114 61.16  109.16 66  103 66  C 96.84 66  92 61.16  92 55  C 92 48.84  96.84 44  103 44  Z " stroke-width="2" stroke="#09a5fd" fill="none" />
  <path d="M 103 61  C 99.64 61  97 58.36  97 55  C 97 51.64  99.64 49  103 49  C 106.36 49  109 51.64  109 55  C 109 58.36  106.36 61  103 61  " fill-rule="nonzero" fill="#09a5fd" stroke="none" />
</svg>