<?xml version="1.0" encoding="utf-8"?>
<svg version="1.1" xmlns:xlink="http://www.w3.org/1999/xlink" width="24px" height="24px" viewBox="173 43  24 24" xmlns="http://www.w3.org/2000/svg">
  <path d="M 185 44  C 191.16 44  196 48.84  196 55  C 196 61.16  191.16 66  185 66  C 178.84 66  174 61.16  174 55  C 174 48.84  178.84 44  185 44  Z " fill-rule="nonzero" fill="#ffffff" stroke="none" />
  <path d="M 185 44  C 191.16 44  196 48.84  196 55  C 196 61.16  191.16 66  185 66  C 178.84 66  174 61.16  174 55  C 174 48.84  178.84 44  185 44  Z " stroke-width="2" stroke="#1e98d7" fill="none" />
  <path d="M 185 61  C 181.64 61  179 58.36  179 55  C 179 51.64  181.64 49  185 49  C 188.36 49  191 51.64  191 55  C 191 58.36  188.36 61  185 61  " fill-rule="nonzero" fill="#1e98d7" stroke="none" />
</svg>