<?xml version="1.0" encoding="utf-8"?>
<svg version="1.1" xmlns:xlink="http://www.w3.org/1999/xlink" width="24px" height="24px" viewBox="254 43  24 24" xmlns="http://www.w3.org/2000/svg">
  <path d="M 266 44  C 272.16 44  277 48.84  277 55  C 277 61.16  272.16 66  266 66  C 259.84 66  255 61.16  255 55  C 255 48.84  259.84 44  266 44  Z " fill-rule="nonzero" fill="#ffffff" stroke="none" />
  <path d="M 266 44  C 272.16 44  277 48.84  277 55  C 277 61.16  272.16 66  266 66  C 259.84 66  255 61.16  255 55  C 255 48.84  259.84 44  266 44  Z " stroke-width="2" stroke="#1e98d7" fill="none" />
  <path d="M 266 61  C 262.64 61  260 58.36  260 55  C 260 51.64  262.64 49  266 49  C 269.36 49  272 51.64  272 55  C 272 58.36  269.36 61  266 61  " fill-rule="nonzero" fill="#1e98d7" stroke="none" />
</svg>