<?xml version="1.0" encoding="utf-8"?>
<svg version="1.1" xmlns:xlink="http://www.w3.org/1999/xlink" width="24px" height="24px" viewBox="336 43  24 24" xmlns="http://www.w3.org/2000/svg">
  <path d="M 348 44  C 354.16 44  359 48.84  359 55  C 359 61.16  354.16 66  348 66  C 341.84 66  337 61.16  337 55  C 337 48.84  341.84 44  348 44  Z " fill-rule="nonzero" fill="#ffffff" stroke="none" />
  <path d="M 348 44  C 354.16 44  359 48.84  359 55  C 359 61.16  354.16 66  348 66  C 341.84 66  337 61.16  337 55  C 337 48.84  341.84 44  348 44  Z " stroke-width="2" stroke="#1e98d7" fill="none" />
  <path d="M 348 61  C 344.64 61  342 58.36  342 55  C 342 51.64  344.64 49  348 49  C 351.36 49  354 51.64  354 55  C 354 58.36  351.36 61  348 61  " fill-rule="nonzero" fill="#1e98d7" stroke="none" />
</svg>