<?xml version="1.0" encoding="utf-8"?>
<svg version="1.1" xmlns:xlink="http://www.w3.org/1999/xlink" width="19px" height="28px" xmlns="http://www.w3.org/2000/svg">
  <g transform="matrix(1 0 0 1 -8 0 )">
    <path d="M 12.96044921875 6.526041666666666  C 13.42431640625 6.987847222222221  13.65625 7.534722222222221  13.65625 8.166666666666666  C 13.65625 8.324652777777775  13.597493489583334 8.461371527777775  13.47998046875 8.576822916666666  C 13.362467447916668 8.692274305555554  13.223307291666668 8.75  13.0625 8.75  C 12.901692708333334 8.75  12.762532552083334 8.692274305555554  12.64501953125 8.576822916666666  C 12.527506510416668 8.461371527777775  12.46875 8.324652777777775  12.46875 8.166666666666666  C 12.46875 7.6076388888888875  12.134765625 7.176215277777775  11.466796875 6.872395833333334  C 10.798828125 6.5685763888888875  10.143229166666668 6.416666666666666  9.5 6.416666666666666  C 9.339192708333334 6.416666666666666  9.200032552083334 6.358940972222221  9.08251953125 6.243489583333334  C 8.965006510416668 6.128038194444441  8.906250000000002 5.991319444444441  8.90625 5.833333333333334  C 8.906250000000002 5.675347222222221  8.965006510416668 5.538628472222221  9.08251953125 5.423177083333334  C 9.200032552083334 5.307725694444441  9.339192708333334 5.25  9.5 5.25  C 10.118489583333334 5.25  10.73388671875 5.347222222222221  11.34619140625 5.541666666666666  C 11.95849609375 5.736111111111109  12.49658203125 6.064236111111109  12.96044921875 6.526041666666666  Z M 15.36328125 11.447916666666666  C 16.204427083333336 10.487847222222221  16.625 9.394097222222221  16.625 8.166666666666666  C 16.625 7.291666666666666  16.41162109375 6.477430555555554  15.98486328125 5.723958333333334  C 15.55810546875 4.970486111111109  15.00146484375 4.3537326388888875  14.31494140625 3.8736979166666656  C 13.62841796875 3.3936631944444406  12.86767578125 3.0169270833333344  12.03271484375 2.7434895833333344  C 11.19775390625 2.4700520833333344  10.353515625 2.3333333333333344  9.5 2.3333333333333344  C 8.646484375 2.3333333333333344  7.80224609375 2.4700520833333344  6.96728515625 2.7434895833333344  C 6.13232421875 3.0169270833333344  5.37158203125 3.3936631944444406  4.68505859375 3.8736979166666656  C 3.99853515625 4.3537326388888875  3.44189453125 4.970486111111109  3.01513671875 5.723958333333334  C 2.58837890625 6.477430555555554  2.375 7.291666666666666  2.375 8.166666666666666  C 2.375 9.394097222222221  2.795572916666667 10.487847222222221  3.63671875 11.447916666666666  C 3.760416666666667 11.581597222222221  3.9490559895833335 11.782118055555554  4.20263671875 12.049479166666666  C 4.456217447916667 12.316840277777779  4.644856770833334 12.517361111111109  4.7685546875 12.651041666666666  C 6.351888020833334 14.510416666666668  7.223958333333334 16.321180555555557  7.384765625 18.083333333333332  L 11.615234375 18.083333333333332  C 11.776041666666668 16.321180555555557  12.648111979166668 14.510416666666668  14.2314453125 12.651041666666666  C 14.355143229166668 12.517361111111109  14.543782552083336 12.316840277777779  14.79736328125 12.049479166666666  C 15.050944010416668 11.782118055555554  15.239583333333334 11.581597222222221  15.36328125 11.447916666666666  Z M 18.17431640625 4.803385416666666  C 18.724772135416668 5.842447916666666  19 6.963541666666666  19 8.166666666666666  C 19 10.050347222222221  18.362955729166668 11.678819444444443  17.0888671875 13.052083333333334  C 16.532226562500004 13.647569444444443  16.071451822916668 14.176215277777775  15.70654296875 14.638020833333332  C 15.341634114583334 15.099826388888888  14.9736328125 15.680121527777775  14.6025390625 16.37890625  C 14.2314453125 17.077690972222218  14.021158854166668 17.730902777777775  13.9716796875 18.338541666666668  C 14.553059895833334 18.678819444444443  14.84375 19.177083333333332  14.84375 19.833333333333332  C 14.84375 20.282986111111107  14.689127604166668 20.671875  14.3798828125 21  C 14.689127604166668 21.328125  14.84375 21.717013888888886  14.84375 22.166666666666664  C 14.84375 22.798611111111114  14.5654296875 23.290798611111114  14.0087890625 23.643229166666664  C 14.169596354166666 23.922743055555554  14.25 24.208333333333336  14.25 24.5  C 14.25 25.05902777777778  14.05517578125 25.490451388888886  13.66552734375 25.794270833333336  C 13.27587890625 26.09809027777778  12.796549479166668 26.25  12.2275390625 26.25  C 11.980143229166668 26.78472222222222  11.609049479166668 27.210069444444446  11.1142578125 27.526041666666664  C 10.619466145833334 27.842013888888886  10.081380208333334 28  9.5 28  C 8.918619791666668 28  8.380533854166668 27.842013888888886  7.8857421875 27.526041666666664  C 7.390950520833334 27.210069444444446  7.019856770833334 26.78472222222222  6.7724609375 26.25  C 6.203450520833334 26.25  5.72412109375 26.09809027777778  5.33447265625 25.794270833333336  C 4.94482421875 25.490451388888886  4.75 25.05902777777778  4.75 24.5  C 4.75 24.208333333333336  4.830403645833334 23.922743055555554  4.9912109375 23.643229166666664  C 4.4345703125 23.290798611111114  4.15625 22.798611111111114  4.15625 22.166666666666664  C 4.15625 21.717013888888886  4.310872395833334 21.328125  4.6201171875 21  C 4.310872395833334 20.671875  4.15625 20.282986111111107  4.15625 19.833333333333332  C 4.15625 19.177083333333332  4.446940104166667 18.678819444444443  5.0283203125 18.338541666666668  C 4.978841145833334 17.730902777777775  4.7685546875 17.077690972222218  4.3974609375 16.37890625  C 4.026367187500001 15.680121527777775  3.658365885416667 15.099826388888888  3.29345703125 14.638020833333332  C 2.9285481770833335 14.176215277777775  2.4677734375 13.647569444444443  1.9111328125 13.052083333333334  C 0.6370442708333333 11.678819444444443  0 10.050347222222221  0 8.166666666666666  C 0 6.963541666666666  0.2752278645833333 5.842447916666666  0.82568359375 4.803385416666666  C 1.3761393229166667 3.7643229166666656  2.099772135416667 2.9014756944444406  2.99658203125 2.21484375  C 3.893391927083334 1.5282118055555531  4.90771484375 0.9874131944444406  6.03955078125 0.5924479166666656  C 7.171386718750001 0.1974826388888875  8.324869791666668 0  9.5 0  C 10.675130208333334 0  11.82861328125 0.1974826388888875  12.96044921875 0.5924479166666656  C 14.09228515625 0.9874131944444406  15.106608072916668 1.5282118055555531  16.00341796875 2.21484375  C 16.900227864583336 2.9014756944444406  17.623860677083336 3.7643229166666656  18.17431640625 4.803385416666666  Z " fill-rule="nonzero" fill="#000000" stroke="none" transform="matrix(1 0 0 1 8 0 )" />
  </g>
</svg>