<?xml version="1.0" encoding="utf-8"?>
<svg version="1.1" xmlns:xlink="http://www.w3.org/1999/xlink" width="56px" height="82px" xmlns="http://www.w3.org/2000/svg">
  <defs>
    <mask fill="white" id="clip18">
      <path d="M 37.8984375 36.99609375  C 40.6328125 34.326822916666664  42 31.10590277777778  42 27.333333333333336  C 42 23.560763888888886  40.6328125 20.33984375  37.8984375 17.670572916666664  C 35.1640625 15.001302083333336  31.864583333333336 13.666666666666664  28 13.666666666666664  C 24.135416666666668 13.666666666666664  20.8359375 15.001302083333336  18.1015625 17.670572916666664  C 15.3671875 20.33984375  14 23.560763888888886  14 27.333333333333336  C 14 31.10590277777778  15.3671875 34.326822916666664  18.1015625 36.99609375  C 20.8359375 39.665364583333336  24.135416666666668 41  28 41  C 31.864583333333336 41  35.1640625 39.665364583333336  37.8984375 36.99609375  Z M 47.796875 8.0078125  C 53.265625 13.346354166666664  56 19.788194444444432  56 27.333333333333336  C 56 31.212673611111107  55.3984375 34.39800347222222  54.1953125 36.889322916666664  L 34.2890625 78.20963541666666  C 33.70572916666667 79.38411458333334  32.83984375 80.30946180555554  31.69140625 80.98567708333334  C 30.54296875 81.66189236111111  29.3125 82  28 82  C 26.6875 82  25.45703125 81.66189236111111  24.30859375 80.98567708333334  C 23.16015625 80.30946180555554  22.3125 79.38411458333334  21.765625 78.20963541666666  L 1.8046875 36.889322916666664  C 0.6015625 34.39800347222222  0 31.212673611111107  0 27.333333333333336  C 0 19.788194444444432  2.734375 13.346354166666664  8.203125 8.0078125  C 13.671875000000002 2.6692708333333366  20.270833333333336 0  28 0  C 35.72916666666667 0  42.328125 2.6692708333333366  47.796875 8.0078125  Z " fill-rule="evenodd" />
    </mask>
  </defs>
  <g transform="matrix(1 0 0 1 -8 -7 )">
    <path d="M 37.8984375 36.99609375  C 40.6328125 34.326822916666664  42 31.10590277777778  42 27.333333333333336  C 42 23.560763888888886  40.6328125 20.33984375  37.8984375 17.670572916666664  C 35.1640625 15.001302083333336  31.864583333333336 13.666666666666664  28 13.666666666666664  C 24.135416666666668 13.666666666666664  20.8359375 15.001302083333336  18.1015625 17.670572916666664  C 15.3671875 20.33984375  14 23.560763888888886  14 27.333333333333336  C 14 31.10590277777778  15.3671875 34.326822916666664  18.1015625 36.99609375  C 20.8359375 39.665364583333336  24.135416666666668 41  28 41  C 31.864583333333336 41  35.1640625 39.665364583333336  37.8984375 36.99609375  Z M 47.796875 8.0078125  C 53.265625 13.346354166666664  56 19.788194444444432  56 27.333333333333336  C 56 31.212673611111107  55.3984375 34.39800347222222  54.1953125 36.889322916666664  L 34.2890625 78.20963541666666  C 33.70572916666667 79.38411458333334  32.83984375 80.30946180555554  31.69140625 80.98567708333334  C 30.54296875 81.66189236111111  29.3125 82  28 82  C 26.6875 82  25.45703125 81.66189236111111  24.30859375 80.98567708333334  C 23.16015625 80.30946180555554  22.3125 79.38411458333334  21.765625 78.20963541666666  L 1.8046875 36.889322916666664  C 0.6015625 34.39800347222222  0 31.212673611111107  0 27.333333333333336  C 0 19.788194444444432  2.734375 13.346354166666664  8.203125 8.0078125  C 13.671875000000002 2.6692708333333366  20.270833333333336 0  28 0  C 35.72916666666667 0  42.328125 2.6692708333333366  47.796875 8.0078125  Z " fill-rule="nonzero" fill="#ffffff" stroke="none" transform="matrix(1 0 0 1 8 7 )" />
    <path d="M 37.8984375 36.99609375  C 40.6328125 34.326822916666664  42 31.10590277777778  42 27.333333333333336  C 42 23.560763888888886  40.6328125 20.33984375  37.8984375 17.670572916666664  C 35.1640625 15.001302083333336  31.864583333333336 13.666666666666664  28 13.666666666666664  C 24.135416666666668 13.666666666666664  20.8359375 15.001302083333336  18.1015625 17.670572916666664  C 15.3671875 20.33984375  14 23.560763888888886  14 27.333333333333336  C 14 31.10590277777778  15.3671875 34.326822916666664  18.1015625 36.99609375  C 20.8359375 39.665364583333336  24.135416666666668 41  28 41  C 31.864583333333336 41  35.1640625 39.665364583333336  37.8984375 36.99609375  Z " stroke-width="2" stroke="#333333" fill="none" transform="matrix(1 0 0 1 8 7 )" mask="url(#clip18)" />
    <path d="M 47.796875 8.0078125  C 53.265625 13.346354166666664  56 19.788194444444432  56 27.333333333333336  C 56 31.212673611111107  55.3984375 34.39800347222222  54.1953125 36.889322916666664  L 34.2890625 78.20963541666666  C 33.70572916666667 79.38411458333334  32.83984375 80.30946180555554  31.69140625 80.98567708333334  C 30.54296875 81.66189236111111  29.3125 82  28 82  C 26.6875 82  25.45703125 81.66189236111111  24.30859375 80.98567708333334  C 23.16015625 80.30946180555554  22.3125 79.38411458333334  21.765625 78.20963541666666  L 1.8046875 36.889322916666664  C 0.6015625 34.39800347222222  0 31.212673611111107  0 27.333333333333336  C 0 19.788194444444432  2.734375 13.346354166666664  8.203125 8.0078125  C 13.671875000000002 2.6692708333333366  20.270833333333336 0  28 0  C 35.72916666666667 0  42.328125 2.6692708333333366  47.796875 8.0078125  Z " stroke-width="2" stroke="#333333" fill="none" transform="matrix(1 0 0 1 8 7 )" mask="url(#clip18)" />
  </g>
</svg>