<?xml version="1.0" encoding="utf-8"?>
<svg version="1.1" xmlns:xlink="http://www.w3.org/1999/xlink" width="23px" height="23px" xmlns="http://www.w3.org/2000/svg">
  <g transform="matrix(1 0 0 1 -6 -2 )">
    <path d="M 16.18470982142857 10.225829216654905  C 16.347284226190478 10.020230533992002  16.42857142857143 9.77675840978593  16.42857142857143 9.495412844036696  C 16.42857142857143 9.214067278287459  16.347284226190478 8.97059515408139  16.18470982142857 8.76499647141849  C 16.022135416666668 8.559397788755586  15.829613095238097 8.456598447424135  15.607142857142858 8.456598447424135  C 14.135416666666668 8.456598447424135  12.774925595238097 8.724417784050813  11.525669642857142 9.260056457304163  C 10.276413690476192 9.795695130557517  9.166201636904763 10.520701011526699  8.195033482142856 11.435074100211715  C 7.223865327380953 12.349447188896729  6.216331845238095 13.537050105857443  5.172433035714286 14.99788285109386  C 5.0098586309523805 15.225123500352856  4.928571428571428 15.468595624558926  4.928571428571428 15.728299223712067  C 4.928571428571428 16.0096447894613  5.0098586309523805 16.25311691366737  5.172433035714286 16.458715596330272  C 5.335007440476191 16.66431427899318  5.527529761904762 16.76711362032463  5.75 16.76711362032463  C 5.955357142857143 16.76711362032463  6.147879464285714 16.66431427899318  6.327566964285714 16.458715596330272  C 6.55859375 16.199011997177134  6.875186011904763 15.814867090096447  7.27734375 15.306280875088214  C 7.679501488095239 14.79769466007998  7.966145833333334 14.440602211244414  8.137276785714285 14.23500352858151  C 9.30952380952381 12.893201599623616  10.458240327380954 11.940955069395434  11.583426339285714 11.378263937896964  C 12.708612351190478 10.815572806398496  14.04985119047619 10.534227240649258  15.607142857142858 10.534227240649258  C 15.829613095238097 10.534227240649258  16.022135416666668 10.431427899317809  16.18470982142857 10.225829216654905  Z M 22.89732142857143 4.72335920959774  C 22.965773809523814 5.350976240884495  23 5.870383439190776  23 6.281580804516583  C 23 7.309574217831097  22.914434523809526 8.353799106092684  22.74330357142857 9.414255469301342  C 22.349702380952383 11.838155728063983  21.56036086309524 13.910374029640085  20.375279017857142 15.63091037402964  C 19.190197172619047 17.351446718419194  17.66071428571429 18.80145848035756  15.786830357142858 19.980945659844743  C 13.955729166666668 21.149611856033875  12.081845238095239 21.73394495412844  10.165178571428571 21.73394495412844  C 8.898809523809524 21.73394495412844  7.675223214285714 21.47965184662432  6.494419642857143 20.971065631616092  C 6.366071428571429 20.916960715125853  5.989583333333334 20.689720065866858  5.364955357142858 20.289343683839096  C 4.740327380952381 19.888967301811338  4.329613095238096 19.68877911079746  4.1328125 19.68877911079746  C 3.9959077380952386 19.68877911079746  3.8269159226190474 19.86191484356622  3.6258370535714284 20.20818630910374  C 3.42475818452381 20.55445777464126  3.232235863095238 20.933192190072926  3.0482700892857144 21.34438955539873  C 2.8643043154761907 21.755586920724536  2.6396949404761907 22.134321336156198  2.374441964285714 22.480592801693717  C 2.109188988095238 22.82686426723124  1.8524925595238098 23  1.6043526785714286 23  C 1.236421130952381 23  0.9647507440476192 22.905316396142087  0.7893415178571429 22.71594918842625  C 0.6139322916666667 22.52658198071042  0.41927083333333337 22.20465772759351  0.20535714285714285 21.750176429075513  C 0.18824404761904762 21.70689249588332  0.1625744047619048 21.64737708774406  0.1283482142857143 21.571630204657726  C 0.09412202380952381 21.495883321571394  0.07059151785714285 21.44177840508116  0.05775669642857143 21.409315455187016  C 0.044921875 21.376852505292874  0.032087053571428575 21.325452834627146  0.01925223214285714 21.255116443189838  C 0.006417410714285714 21.18478005175253  0 21.11173841449071  0 21.035991531404377  C 0 20.657257115972715  0.13262648809523808 20.25958597976947  0.3978794642857143 19.842978122794637  C 0.6631324404761905 19.426370265819806  0.9540550595238096 19.07198306280875  1.2706473214285714 18.779816513761467  C 1.5872395833333335 18.487649964714183  1.8781622023809523 18.184662432368853  2.143415178571429 17.870853916725476  C 2.408668154761905 17.557045401082096  2.5412946428571432 17.297341801928955  2.541294642857143 17.091743119266056  C 2.5412946428571432 17.048459186073863  2.4813988095238098 16.84286050341096  2.361607142857143 16.474947071277345  C 2.2418154761904767 16.10703363914373  2.1733630952380953 15.868972006586683  2.15625 15.76076217360621  C 2.079241071428571 15.208892025405786  2.040736607142857 14.646200893907315  2.040736607142857 14.072688779110797  C 2.040736607142857 12.82827569983533  2.226841517857143 11.637967537050105  2.599051339285714 10.501764290755116  C 2.971261160714286 9.365561044460126  3.4803757440476195 8.367325335215245  4.126395089285714 7.507057163020465  C 4.77241443452381 6.646788990825689  5.5018601190476195 5.8947306516113835  6.314732142857143 5.25088214537756  C 7.127604166666668 4.607033639143729  8.000372023809524 4.090331686661962  8.933035714285715 3.7007762879322517  C 9.403645833333334 3.505998588567396  10.023995535714285 3.368031051517291  10.794084821428571 3.286873676781933  C 11.564174107142858 3.205716302046578  12.332124255952381 3.157021877205363  13.097935267857142 3.140790402258293  C 13.863746279761907 3.12455892731122  14.627418154761907 3.092095977417078  15.388950892857142 3.0434015525758653  C 16.150483630952383 2.9947071277346504  16.849981398809526 2.8648553281580798  17.48744419642857 2.6538461538461546  C 18.12490699404762 2.442836979534227  18.61049107142857 2.137144201364382  18.94419642857143 1.7367678193366256  L 19.32282366071429 1.2579393083980248  C 19.32282366071429 1.2579393083980248  19.44903273809524 1.1064455422253552  19.701450892857142 0.8034580098800289  C 19.95386904761905 0.5004704775346975  20.069382440476197 0.39226064455421894  20.04799107142857 0.47882851093860335  C 20.026599702380956 0.5653963773229826  20.18275669642857 0.47882851093860335  20.51646205357143 0.2191249117854629  C 20.85016741071429 -0.04057868736768011  21.03627232142857 -0.06492589978828511  21.07477678571429 0.14608327452364023  C 21.408482142857142 0.14608327452364023  21.71010044642857 0.3949658903787323  21.97963169642857 0.892731122088919  C 22.24916294642857 1.390496353799103  22.452380952380956 1.996471418489766  22.58928571428571 2.710656316160902  C 22.726190476190478 3.4248412138320385  22.82886904761905 4.095742178310983  22.89732142857143 4.72335920959774  Z " fill-rule="nonzero" fill="#000000" stroke="none" transform="matrix(1 0 0 1 6 2 )" />
  </g>
</svg>