<?xml version="1.0" encoding="utf-8"?>
<svg version="1.1" xmlns:xlink="http://www.w3.org/1999/xlink" width="71px" height="100px" xmlns="http://www.w3.org/2000/svg">
  <defs>
    <mask fill="white" id="clip17">
      <path d="M 48.0498046875 45.1171875  C 51.5166015625 41.861979166666664  53.25 37.93402777777778  53.25 33.333333333333336  C 53.25 28.732638888888886  51.5166015625 24.8046875  48.0498046875 21.549479166666664  C 44.5830078125 18.294270833333336  40.399739583333336 16.666666666666664  35.5 16.666666666666664  C 30.600260416666668 16.666666666666664  26.4169921875 18.294270833333336  22.9501953125 21.549479166666664  C 19.4833984375 24.8046875  17.75 28.732638888888886  17.75 33.333333333333336  C 17.75 37.93402777777778  19.4833984375 41.861979166666664  22.9501953125 45.1171875  C 26.4169921875 48.372395833333336  30.600260416666668 50  35.5 50  C 40.399739583333336 50  44.5830078125 48.372395833333336  48.0498046875 45.1171875  Z M 60.599609375 9.765625  C 67.533203125 16.276041666666664  71 24.131944444444432  71 33.333333333333336  C 71 38.06423611111111  70.2373046875 41.94878472222222  68.7119140625 44.986979166666664  L 43.4736328125 95.37760416666666  C 42.73404947916667 96.80989583333334  41.63623046875 97.93836805555554  40.18017578125 98.76302083333334  C 38.72412109375 99.58767361111111  37.1640625 100  35.5 100  C 33.8359375 100  32.27587890625 99.58767361111111  30.81982421875 98.76302083333334  C 29.36376953125 97.93836805555554  28.2890625 96.80989583333334  27.595703125 95.37760416666666  L 2.2880859375 44.986979166666664  C 0.7626953125 41.94878472222222  0 38.06423611111111  0 33.333333333333336  C 0 24.131944444444432  3.466796875 16.276041666666664  10.400390625 9.765625  C 17.333984375000004 3.255208333333337  25.700520833333336 0  35.5 0  C 45.29947916666667 0  53.666015625 3.255208333333337  60.599609375 9.765625  Z " fill-rule="evenodd" />
    </mask>
  </defs>
  <g>
    <path d="M 48.0498046875 45.1171875  C 51.5166015625 41.861979166666664  53.25 37.93402777777778  53.25 33.333333333333336  C 53.25 28.732638888888886  51.5166015625 24.8046875  48.0498046875 21.549479166666664  C 44.5830078125 18.294270833333336  40.399739583333336 16.666666666666664  35.5 16.666666666666664  C 30.600260416666668 16.666666666666664  26.4169921875 18.294270833333336  22.9501953125 21.549479166666664  C 19.4833984375 24.8046875  17.75 28.732638888888886  17.75 33.333333333333336  C 17.75 37.93402777777778  19.4833984375 41.861979166666664  22.9501953125 45.1171875  C 26.4169921875 48.372395833333336  30.600260416666668 50  35.5 50  C 40.399739583333336 50  44.5830078125 48.372395833333336  48.0498046875 45.1171875  Z M 60.599609375 9.765625  C 67.533203125 16.276041666666664  71 24.131944444444432  71 33.333333333333336  C 71 38.06423611111111  70.2373046875 41.94878472222222  68.7119140625 44.986979166666664  L 43.4736328125 95.37760416666666  C 42.73404947916667 96.80989583333334  41.63623046875 97.93836805555554  40.18017578125 98.76302083333334  C 38.72412109375 99.58767361111111  37.1640625 100  35.5 100  C 33.8359375 100  32.27587890625 99.58767361111111  30.81982421875 98.76302083333334  C 29.36376953125 97.93836805555554  28.2890625 96.80989583333334  27.595703125 95.37760416666666  L 2.2880859375 44.986979166666664  C 0.7626953125 41.94878472222222  0 38.06423611111111  0 33.333333333333336  C 0 24.131944444444432  3.466796875 16.276041666666664  10.400390625 9.765625  C 17.333984375000004 3.255208333333337  25.700520833333336 0  35.5 0  C 45.29947916666667 0  53.666015625 3.255208333333337  60.599609375 9.765625  Z " fill-rule="nonzero" fill="#95f204" stroke="none" />
    <path d="M 48.0498046875 45.1171875  C 51.5166015625 41.861979166666664  53.25 37.93402777777778  53.25 33.333333333333336  C 53.25 28.732638888888886  51.5166015625 24.8046875  48.0498046875 21.549479166666664  C 44.5830078125 18.294270833333336  40.399739583333336 16.666666666666664  35.5 16.666666666666664  C 30.600260416666668 16.666666666666664  26.4169921875 18.294270833333336  22.9501953125 21.549479166666664  C 19.4833984375 24.8046875  17.75 28.732638888888886  17.75 33.333333333333336  C 17.75 37.93402777777778  19.4833984375 41.861979166666664  22.9501953125 45.1171875  C 26.4169921875 48.372395833333336  30.600260416666668 50  35.5 50  C 40.399739583333336 50  44.5830078125 48.372395833333336  48.0498046875 45.1171875  Z " stroke-width="2" stroke="#333333" fill="none" mask="url(#clip17)" />
    <path d="M 60.599609375 9.765625  C 67.533203125 16.276041666666664  71 24.131944444444432  71 33.333333333333336  C 71 38.06423611111111  70.2373046875 41.94878472222222  68.7119140625 44.986979166666664  L 43.4736328125 95.37760416666666  C 42.73404947916667 96.80989583333334  41.63623046875 97.93836805555554  40.18017578125 98.76302083333334  C 38.72412109375 99.58767361111111  37.1640625 100  35.5 100  C 33.8359375 100  32.27587890625 99.58767361111111  30.81982421875 98.76302083333334  C 29.36376953125 97.93836805555554  28.2890625 96.80989583333334  27.595703125 95.37760416666666  L 2.2880859375 44.986979166666664  C 0.7626953125 41.94878472222222  0 38.06423611111111  0 33.333333333333336  C 0 24.131944444444432  3.466796875 16.276041666666664  10.400390625 9.765625  C 17.333984375000004 3.255208333333337  25.700520833333336 0  35.5 0  C 45.29947916666667 0  53.666015625 3.255208333333337  60.599609375 9.765625  Z " stroke-width="2" stroke="#333333" fill="none" mask="url(#clip17)" />
  </g>
</svg>