<?xml version="1.0" encoding="utf-8"?>
<svg version="1.1" xmlns:xlink="http://www.w3.org/1999/xlink" width="27px" height="27px" xmlns="http://www.w3.org/2000/svg">
  <g transform="matrix(1 0 0 1 -4 0 )">
    <path d="M 4.771022727272727 18.058030480656505  C 5.568750000000001 18.18464243845252  8.17159090909091 18.332356389214535  12.579545454545453 18.501172332942556  L 12.349431818181818 24.325322391559205  L 12.31875 24.67350527549824  L 5.875568181818182 24.21453692848769  C 5.507386363636364 24.182883939038685  5.1647727272727275 24.01670574443142  4.847727272727273 23.716002344665885  C 4.530681818181819 23.415298944900353  4.290340909090909 23.069753810082066  4.126704545454546 22.67936694021102  C 4.014204545454546 22.394490035169987  3.940056818181819 22.104337631887457  3.9042613636363632 21.80890973036342  C 3.8684659090909093 21.51348182883939  3.8889204545454548 21.170574443141852  3.965625 20.78018757327081  C 4.042329545454545 20.389800703399764  4.103693181818182 20.09964830011723  4.149715909090909 19.90973036342321  C 4.195738636363636 19.71981242672919  4.305681818181818 19.38218053927315  4.4795454545454545 18.8968347010551  C 4.653409090909092 18.411488862837047  4.750568181818182 18.131887456037514  4.771022727272727 18.058030480656505  Z M 0 8.957796014067995  L 6.642613636363636 9.226846424384524  L 9.403977272727271 15.225087924970692  L 7.148863636363636 13.76905041031653  C 6.504545454545455 14.528722157092613  5.934375000000001 15.291031652989448  5.438352272727273 16.055978898007034  C 4.942329545454546 16.820926143024618  4.571590909090909 17.480363423212193  4.326136363636364 18.034290738569755  C 4.080681818181818 18.588218053927317  3.8786931818181825 19.08675263774912  3.7201704545454546 19.52989449003517  C 3.5616477272727276 19.97303634232122  3.4670454545454548 20.305392731535758  3.436363636363636 20.52696365767878  L 3.375 20.85932004689332  L 0.4602272727272727 15.20926143024619  C 0.28636363636363643 14.93493552168816  0.19431818181818183 14.639507620164126  0.18409090909090908 14.322977725674091  C 0.17386363636363641 14.006447831184056  0.20454545454545459 13.758499413833528  0.2761363636363636 13.57913247362251  L 0.39886363636363636 13.294255568581478  C 0.7568181818181821 12.629542790152403  1.3397727272727276 11.637749120750293  2.1477272727272725 10.318874560375146  L 0 8.957796014067995  Z M 24.668181818181818 17.757327080890974  L 25.527272727272727 17.409144196951935  L 22.64318181818182 23.090855803048065  C 22.520454545454545 23.3968347010551  22.33380681818182 23.642145369284876  22.083238636363635 23.826787807737396  C 21.832670454545458 24.01143024618992  21.610227272727272 24.119577960140678  21.415909090909093 24.15123094958968  L 21.139772727272728 24.21453692848769  C 20.413636363636364 24.288393903868702  19.29375 24.351699882766706  17.780113636363637 24.404454865181712  L 17.90284090909091 27  L 14.374431818181817 21.191676436107855  L 17.611363636363635 15.462485345838218  L 17.71875 18.200468933177024  C 19.457386363636367 18.369284876905038  20.904545454545456 18.395662368112543  22.06022727272727 18.279601406799532  C 23.215909090909093 18.163540445486518  24.085227272727273 17.989449003516995  24.668181818181818 17.757327080890974  Z M 12.99375 2.2315357561547478  C 13.239204545454546 2.5164126611957793  13.40284090909091 2.701055099648297  13.48465909090909 2.785463071512309  C 13.003977272727274 3.450175849941384  11.648863636363636 5.745017584994139  9.419318181818182 9.669988276670576  L 4.55625 6.710433763188745  L 4.264772727272727 6.520515826494725  L 7.716477272727272 0.8862837045720989  C 7.921022727272728 0.5592028135990611  8.22784090909091 0.3218053927315352  8.636931818181818 0.1740914419695182  C 9.046022727272728 0.026377491207501214  9.455113636363636 -0.02637749120750721  9.864204545454546 0.015826494724501927  C 10.10965909090909 0.0369284876905035  10.357670454545456 0.1002344665885112  10.608238636363636 0.20574443141852206  C 10.858806818181819 0.3112543962485329  11.073579545454546 0.4220398593200434  11.252556818181818 0.5381008206330595  C 11.431534090909093 0.6541617819460727  11.64375 0.8282532239155909  11.889204545454547 1.0603751465416171  C 12.134659090909091 1.2924970691676405  12.31875 1.4745017584994127  12.441477272727273 1.6063892145369276  C 12.564204545454546 1.7382766705744426  12.748295454545454 1.9466588511137162  12.99375 2.2315357561547478  Z M 23.241477272727273 7.8182883939038685  L 23.532954545454544 7.64419695193435  L 26.785227272727273 13.389214536928487  C 26.96931818181818 13.779601406799532  27.033238636363635 14.180539273153578  26.976988636363636 14.59202813599062  C 26.92073863636364 15.003516998827665  26.780113636363637 15.393903868698711  26.555113636363636 15.763188745603752  C 26.42215909090909 15.974208675263773  26.25340909090909 16.169402110199297  26.048863636363635 16.34876905041032  C 25.844318181818185 16.528135990621333  25.65 16.67584994138335  25.465909090909093 16.791910902696365  C 25.28181818181818 16.90797186400938  25.03380681818182 17.02403282532239  24.721875 17.140093786635404  C 24.409943181818186 17.25615474794842  24.16960227272727 17.340562719812425  24.000852272727272 17.39331770222743  C 23.832102272727273 17.446072684642438  23.56875 17.519929660023447  23.210795454545455 17.61488862837046  C 22.85284090909091 17.709847596717466  22.61761363636364 17.773153575615474  22.505113636363635 17.804806565064474  C 22.157386363636366 17.045134818288396  20.80227272727273 14.745017584994137  18.43977272727273 10.90445486518171  L 23.241477272727273 7.8182883939038685  Z M 19.621022727272727 1.0603751465416171  C 20.019886363636363 1.7039859320046875  20.59261363636364 2.7063305978897993  21.339204545454542 4.0674091441969535  L 23.517613636363635 2.753810082063305  L 20.142613636363635 8.657092614302462  L 13.714772727272727 8.340562719812425  L 16.03125 6.979484173505275  C 15.68352272727273 6.040445486518168  15.299999999999999 5.164712778429074  14.880681818181818 4.352286049237985  C 14.461363636363638 3.53985932004689  14.075284090909092 2.8883352872215715  13.72244318181818 2.397713950762015  C 13.369602272727274 1.9070926143024614  13.039772727272728 1.4850527549824148  12.732954545454547 1.1315943728018758  C 12.426136363636367 0.7781359906213338  12.185795454545456 0.5328253223915569  12.011931818181818 0.3956623681125452  L 11.751136363636364 0.18991793669402013  L 17.964204545454542 0.20574443141852206  C 18.28125 0.1740914419695182  18.57784090909091 0.22948417350527495  18.85397727272727 0.3719226260257923  C 19.130113636363635 0.5143610785463066  19.329545454545457 0.664712778429075  19.452272727272728 0.8229777256740912  L 19.621022727272727 1.0603751465416171  Z " fill-rule="nonzero" fill="#000000" stroke="none" transform="matrix(1 0 0 1 4 0 )" />
  </g>
</svg>