<?xml version="1.0" encoding="utf-8"?>
<svg version="1.1" xmlns:xlink="http://www.w3.org/1999/xlink" width="25px" height="25px" xmlns="http://www.w3.org/2000/svg">
  <g transform="matrix(1 0 0 1 -5 -2 )">
    <path d="M 17.061941964285715 14.013671875  C 17.229352678571427 14.393446180555552  17.494419642857142 14.583333333333332  17.857142857142858 14.583333333333332  L 22.112165178571427 14.583333333333332  C 22.065662202380953 14.6484375  22.019159226190478 14.705403645833332  21.97265625 14.754231770833332  C 21.926153273809526 14.803059895833332  21.884300595238095 14.84375  21.847098214285715 14.876302083333332  L 21.805245535714285 14.94140625  L 13.113839285714285 24.70703125  C 12.946428571428573 24.90234375  12.741815476190476 25  12.5 25  C 12.258184523809526 25  12.05357142857143 24.90234375  11.886160714285714 24.70703125  L 3.180803571428571 14.908854166666668  C 3.1343005952380953 14.887152777777779  3.0366443452380953 14.778645833333332  2.8878348214285716 14.583333333333332  L 8.035714285714286 14.583333333333332  C 8.240327380952381 14.583333333333332  8.424014136904763 14.510091145833332  8.586774553571429 14.363606770833332  C 8.749534970238097 14.217122395833332  8.854166666666668 14.029947916666668  8.900669642857142 13.802083333333332  L 9.877232142857142 9.228515625  L 12.527901785714285 20.084635416666664  C 12.583705357142858 20.301649305555554  12.690662202380953 20.480685763888886  12.848772321428573 20.621744791666664  C 13.006882440476192 20.762803819444446  13.18824404761905 20.833333333333336  13.392857142857142 20.833333333333336  C 13.588169642857146 20.833333333333336  13.764880952380953 20.762803819444446  13.922991071428573 20.621744791666664  C 14.081101190476192 20.480685763888886  14.188058035714285 20.301649305555554  14.243861607142858 20.084635416666664  L 16.280691964285715 12.190755208333334  L 17.061941964285715 14.013671875  Z M 23.228236607142858 2.0182291666666656  C 24.409412202380953 3.3637152777777763  25 5.230034722222221  25 7.6171875  C 25 9.190538194444443  24.521019345238095 10.818142361111107  23.563058035714285 12.5  L 18.415178571428573 12.5  L 16.866629464285715 8.902994791666666  C 16.792224702380953 8.71853298611111  16.673642113095237 8.57204861111111  16.510881696428573 8.463541666666666  C 16.348121279761905 8.355034722222221  16.178385416666668 8.311631944444443  16.001674107142858 8.333333333333334  C 15.583147321428573 8.387586805555555  15.322730654761907 8.637152777777777  15.220424107142858 9.08203125  L 13.420758928571427 16.080729166666668  L 10.686383928571429 4.915364583333334  C 10.630580357142858 4.698350694444442  10.521298363095239 4.519314236111108  10.358537946428571 4.378255208333334  C 10.195777529761905 4.237196180555555  10.012090773809526 4.166666666666666  9.807477678571429 4.166666666666666  C 9.602864583333334 4.166666666666666  9.421502976190476 4.239908854166666  9.263392857142858 4.386393229166666  C 9.105282738095239 4.532877604166666  9.00297619047619 4.720052083333334  8.956473214285714 4.947916666666666  L 7.338169642857142 12.5  L 1.4369419642857142 12.5  C 0.4789806547619047 10.818142361111107  0 9.190538194444443  0 7.6171875  C 0 5.230034722222221  0.5905877976190476 3.3637152777777763  1.7717633928571428 2.0182291666666656  C 2.952938988095238 0.6727430555555552  4.585193452380952 0  6.6685267857142865 0  C 7.245163690476191 0  7.8334263392857135 0.11664496527777624  8.433314732142858 0.34993489583333426  C 9.033203125 0.5832248263888867  9.591238839285714 0.8978949652777762  10.107421875 1.2939453125  C 10.623604910714288 1.689995659722221  11.067708333333336 2.061631944444442  11.439732142857142 2.4088541666666656  C 11.811755952380953 2.7560763888888866  12.165178571428571 3.125  12.5 3.515625  C 12.834821428571427 3.125  13.18824404761905 2.7560763888888866  13.560267857142858 2.4088541666666656  C 13.932291666666668 2.061631944444442  14.376395089285715 1.689995659722221  14.892578125 1.2939453125  C 15.408761160714285 0.8978949652777762  15.966796875 0.5832248263888867  16.566685267857142 0.34993489583333426  C 17.166573660714285 0.11664496527777624  17.75483630952381 0  18.331473214285715 0  C 20.41480654761905 0  22.047061011904763 0.6727430555555552  23.228236607142858 2.0182291666666656  Z " fill-rule="nonzero" fill="#000000" stroke="none" transform="matrix(1 0 0 1 5 2 )" />
  </g>
</svg>