<?xml version="1.0" encoding="utf-8"?>
<svg version="1.1" xmlns:xlink="http://www.w3.org/1999/xlink" width="21px" height="30px" xmlns="http://www.w3.org/2000/svg">
  <g transform="matrix(1 0 0 1 -14 -7 )">
    <path d="M 13.553513513513513 22.78125  C 13.735135135135135 22.96875  13.825945945945946 23.187499999999996  13.825945945945946 23.4375  L 13.825945945945946 29.0625  C 13.825945945945946 29.312500000000004  13.735135135135135 29.53125  13.553513513513513 29.71875  C 13.371891891891893 29.90625  13.16 30  12.917837837837839 30  L 7.469189189189189 30  C 7.227027027027027 30  7.015135135135137 29.90625  6.833513513513513 29.71875  C 6.651891891891892 29.53125  6.56108108108108 29.312500000000004  6.56108108108108 29.0625  L 6.56108108108108 23.4375  C 6.56108108108108 23.187499999999996  6.651891891891892 22.96875  6.833513513513513 22.78125  C 7.015135135135137 22.59375  7.227027027027027 22.5  7.469189189189189 22.5  L 12.917837837837839 22.5  C 13.16 22.5  13.371891891891893 22.59375  13.553513513513513 22.78125  Z M 20.06918918918919 5.660156250000002  C 20.689729729729734 6.839843749999997  21.000000000000004 8.078124999999996  21 9.375  C 21.000000000000004 10.218749999999998  20.882702702702705 11.0078125  20.648108108108108 11.742187499999998  C 20.413513513513514 12.476562499999996  20.14864864864865 13.07421875  19.853513513513512 13.53515625  C 19.55837837837838 13.99609375  19.142162162162165 14.4609375  18.604864864864865 14.9296875  C 18.067567567567572 15.3984375  17.632432432432434 15.738281250000002  17.29945945945946 15.94921875  C 16.966486486486488 16.16015625  16.504864864864864 16.4375  15.914594594594595 16.78125  C 15.294054054054056 17.140625  14.775675675675677 17.6484375  14.35945945945946 18.3046875  C 13.943243243243245 18.9609375  13.735135135135135 19.484375  13.735135135135135 19.875  C 13.735135135135135 20.140624999999996  13.644324324324325 20.394531249999996  13.462702702702703 20.63671875  C 13.28108108108108 20.878906250000004  13.06918918918919 21  12.827027027027027 21  L 7.378378378378379 21  C 7.151351351351353 21  6.95837837837838 20.855468750000004  6.7994594594594595 20.56640625  C 6.64054054054054 20.277343749999996  6.56108108108108 19.984374999999996  6.56108108108108 19.6875  L 6.56108108108108 18.6328125  C 6.56108108108108 17.3359375  7.052972972972972 16.11328125  8.036756756756755 14.964843749999998  C 9.02054054054054 13.81640625  10.102702702702704 12.968749999999998  11.283243243243243 12.421875  C 12.176216216216218 11.999999999999996  12.811891891891891 11.562499999999998  13.19027027027027 11.109375000000002  C 13.56864864864865 10.65625  13.757837837837837 10.062499999999998  13.757837837837837 9.328125  C 13.757837837837837 8.671874999999996  13.405945945945946 8.09375  12.702162162162162 7.593750000000002  C 11.99837837837838 7.09375  11.184864864864867 6.843750000000001  10.261621621621622 6.843750000000001  C 9.277837837837838 6.843750000000001  8.46054054054054 7.070312499999998  7.809729729729729 7.523437499999998  C 7.28 7.9140625  6.47027027027027 8.812499999999998  5.38054054054054 10.218749999999998  C 5.183783783783785 10.468749999999998  4.949189189189189 10.593749999999996  4.676756756756757 10.59375  C 4.495135135135135 10.593749999999996  4.305945945945946 10.531249999999998  4.109189189189189 10.406250000000002  L 0.38594594594594595 7.476562500000002  C 0.1891891891891894 7.3203124999999964  0.07189189189189232 7.125000000000002  0.03405405405405405 6.890625000000002  C -0.0037837837837835686 6.656250000000002  0.037837837837837944 6.4375  0.1589189189189189 6.234374999999998  C 2.580540540540541 2.078124999999995  6.091891891891892 0  10.692972972972973 0  C 11.903783783783785 0  13.12216216216216 0.24218749999999956  14.348108108108109 0.7265624999999987  C 15.574054054054054 1.2109374999999978  16.67891891891892 1.8593749999999976  17.662702702702703 2.6718750000000013  C 18.646486486486488 3.484374999999995  19.44864864864865 4.480468749999995  20.06918918918919 5.660156250000002  Z " fill-rule="nonzero" fill="#ffffff" stroke="none" transform="matrix(1 0 0 1 14 7 )" />
  </g>
</svg>