<?xml version="1.0" encoding="utf-8"?>
<svg version="1.1" xmlns:xlink="http://www.w3.org/1999/xlink" width="216px" height="163px" xmlns="http://www.w3.org/2000/svg">
  <g transform="matrix(1 0 0 1 -682 -121 )">
    <path d="M 682 121  L 898 121  L 898 284  L 682 284  L 682 121  " fill-rule="nonzero" fill="#cccccc" stroke="none" />
    <path d="M 693 132  L 887 132  L 887 273  L 693 273  L 693 132  " fill-rule="nonzero" fill="#ffffff" stroke="none" />
    <path d="M 806.5450000000001 169.89999999999998  C 799.6990000000001 169.89999999999998  794.32 164.521  794.32 157.67499999999998  C 794.32 150.82899999999998  799.6990000000001 145.45  806.5450000000001 145.45  C 813.3910000000001 145.45  818.7700000000001 150.82899999999998  818.7700000000001 157.67499999999998  C 818.7700000000001 164.521  813.3910000000001 169.89999999999998  806.5450000000001 169.89999999999998  " fill-rule="nonzero" fill="#cccccc" stroke="none" />
    <path d="M 697 269  L 697 195.85  L 743.5 162.6  L 808.6 208.78055555555557  L 845.8 182.55  L 883 208.78055555555557  L 883 269  L 697 269  " fill-rule="nonzero" fill="#169bd5" stroke="none" />
  </g>
</svg>