<?xml version="1.0" encoding="utf-8"?>
<svg version="1.1" xmlns:xlink="http://www.w3.org/1999/xlink" width="33px" height="33px" xmlns="http://www.w3.org/2000/svg">
  <g transform="matrix(1 0 0 1 -370 -287 )">
    <path d="M 32.17051630434783 14.593709884467264  C 32.72350543478261 15.08793324775353  33 15.723363286264439  33 16.5  C 33 17.262516046213097  32.72350543478261 17.905006418485236  32.17051630434783 18.42747111681643  L 17.576086956521742 32.216302952503206  C 16.993206521739133 32.738767650834404  16.31317934782609 33  15.53600543478261 33  C 14.773777173913043 33  14.101222826086957 32.738767650834404  13.518342391304348 32.216302952503206  L 11.836956521739129 30.62772785622593  C 11.269021739130435 30.091142490372274  10.985054347826088 29.448652118100124  10.985054347826088 28.7002567394095  C 10.985054347826088 27.951861360718873  11.269021739130435 27.309370988446727  11.836956521739129 26.77278562259307  L 18.405570652173914 20  L 2.6229619565217392 20  C 1.845788043478261 20.566752246469836  1.2143342391304348 20.30198973042362  0.7286005434782609 19.772464698331195  C 0.24286684782608692 19.242939666238765  0 18.60397946084724  0 17.85558408215661  L 0 15.144415917843387  C 0 14.396020539152758  0.24286684782608692 13.757060333761233  0.7286005434782609 13.227535301668807  C 1.2143342391304348 12.698010269576379  1.845788043478261 12.433247753530168  2.6229619565217392 13  L 18.405570652173914 13  L 11.836956521739129 6.206033376123235  C 11.269021739130435 5.697689345314505  10.985054347826088 5.062259306803596  10.985054347826088 4.299743260590501  C 10.985054347826088 3.537227214377409  11.269021739130435 2.9017971758664958  11.836956521739129 2.3934531450577654  L 13.518342391304348 0.8048780487804885  C 14.086277173913045 0.26829268292682706  14.75883152173913 0  15.53600543478261 0  C 16.328125 0  17.008152173913043 0.26829268292682706  17.576086956521742 0.8048780487804885  L 32.17051630434783 14.593709884467264  Z " fill-rule="nonzero" fill="#000000" stroke="none" transform="matrix(1 0 0 1 370 287 )" />
  </g>
</svg>