<?xml version="1.0" encoding="utf-8"?>
<svg version="1.1" xmlns:xlink="http://www.w3.org/1999/xlink" width="33px" height="33px" xmlns="http://www.w3.org/2000/svg">
  <g transform="matrix(1 0 0 1 -322 -287 )">
    <path d="M 32.27139945652174 13.227535301668807  C 32.75713315217391 13.757060333761233  33 14.396020539152758  33 15.144415917843387  L 33 17.85558408215661  C 33 18.60397946084724  32.75713315217391 19.242939666238765  32.27139945652174 19.772464698331195  C 31.78566576086957 20.30198973042362  31.154211956521742 20.566752246469836  30.377038043478258 20  L 14.594429347826088 20  L 21.163043478260867 26.793966623876763  C 21.73097826086957 27.302310654685495  22.014945652173914 27.937740693196403  22.014945652173914 28.7002567394095  C 22.014945652173914 29.462772785622594  21.73097826086957 30.098202824133505  21.163043478260867 30.606546854942234  L 19.481657608695652 32.216302952503206  C 18.92866847826087 32.738767650834404  18.25611413043478 33  17.46399456521739 33  C 16.686820652173914 33  16.00679347826087 32.738767650834404  15.423913043478262 32.216302952503206  L 0.829483695652174 18.406290115532734  C 0.2764945652173915 17.88382541720154  0 17.248395378690628  0 16.5  C 0 15.765725288831835  0.2764945652173915 15.123234916559692  0.829483695652174 14.572528883183569  L 15.423913043478262 0.8048780487804885  C 15.991847826086959 0.26829268292682706  16.671875 0  17.46399456521739 0  C 18.24116847826087 0  18.913722826086957 0.26829268292682706  19.481657608695652 0.8048780487804885  L 21.163043478260867 2.372272143774069  C 21.73097826086957 2.908857509627727  22.014945652173914 3.5513478818998667  22.014945652173914 4.299743260590501  C 22.014945652173914 5.048138639281127  21.73097826086957 5.690629011553271  21.163043478260867 6.227214377406932  L 14.594429347826088 13  L 30.377038043478258 13  C 31.154211956521742 12.433247753530168  31.78566576086957 12.698010269576379  32.27139945652174 13.227535301668807  Z " fill-rule="nonzero" fill="#000000" stroke="none" transform="matrix(1 0 0 1 322 287 )" />
  </g>
</svg>