<?xml version="1.0" encoding="utf-8"?>
<svg version="1.1" xmlns:xlink="http://www.w3.org/1999/xlink" width="24px" height="23px" xmlns="http://www.w3.org/2000/svg">
  <g transform="matrix(1 0 0 1 -15 -4 )">
    <path d="M 14.71875 14.10546875  C 15.983173076923078 12.893729967948717  16.615384615384613 11.435496794871794  16.615384615384613 9.730769230769232  C 16.615384615384613 8.026041666666664  15.983173076923078 6.567808493589743  14.71875 5.356069711538462  C 13.454326923076923 4.144330929487178  11.932692307692308 3.5384615384615388  10.153846153846153 3.5384615384615388  C 8.375 3.5384615384615388  6.853365384615386 4.144330929487178  5.5889423076923075 5.356069711538462  C 4.324519230769231 6.567808493589743  3.6923076923076925 8.026041666666664  3.6923076923076925 9.730769230769232  C 3.6923076923076925 11.435496794871794  4.324519230769231 12.893729967948717  5.5889423076923075 14.10546875  C 6.853365384615386 15.317207532051277  8.375 15.923076923076923  10.153846153846153 15.923076923076923  C 11.932692307692308 15.923076923076923  13.454326923076923 15.317207532051277  14.71875 14.10546875  Z M 23.466346153846153 19.986778846153847  C 23.822115384615387 20.32772435897436  24 20.74238782051282  24 21.230769230769234  C 24 21.709935897435898  23.817307692307693 22.12459935897436  23.451923076923077 22.474759615384617  C 23.086538461538463 22.824919871794872  22.653846153846157 23  22.153846153846153 23  C 21.634615384615387 23  21.201923076923077 22.824919871794872  20.85576923076923 22.474759615384617  L 15.908653846153845 17.747596153846153  C 14.1875 18.89022435897436  12.26923076923077 19.46153846153846  10.153846153846153 19.46153846153846  C 8.778846153846155 19.46153846153846  7.4639423076923075 19.205829326923077  6.209134615384615 18.69441105769231  C 4.954326923076923 18.18299278846154  3.8725961538461537 17.491887019230766  2.963942307692308 16.62109375  C 2.0552884615384617 15.750300480769232  1.3341346153846156 14.713641826923077  0.8004807692307692 13.511117788461538  C 0.2668269230769231 12.30859375  0 11.048477564102562  0 9.730769230769232  C 0 8.413060897435894  0.2668269230769231 7.152944711538462  0.8004807692307692 5.9504206730769225  C 1.3341346153846156 4.747896634615384  2.0552884615384617 3.7112379807692317  2.963942307692308 2.8404447115384612  C 3.8725961538461537 1.9696514423076934  4.954326923076923 1.2785456730769227  6.209134615384615 0.7671274038461546  C 7.4639423076923075 0.255709134615384  8.778846153846155 0  10.153846153846153 0  C 11.528846153846153 0  12.84375 0.255709134615384  14.098557692307693 0.7671274038461546  C 15.353365384615385 1.2785456730769227  16.435096153846153 1.9696514423076934  17.34375 2.8404447115384612  C 18.252403846153847 3.7112379807692317  18.973557692307693 4.747896634615384  19.507211538461537 5.9504206730769225  C 20.040865384615387 7.152944711538462  20.307692307692307 8.413060897435894  20.307692307692307 9.730769230769232  C 20.307692307692307 11.75801282051282  19.711538461538463 13.596354166666664  18.51923076923077 15.245793269230768  L 23.466346153846153 19.986778846153847  Z " fill-rule="nonzero" fill="#000000" stroke="none" transform="matrix(1 0 0 1 15 4 )" />
  </g>
</svg>